<?xml version="1.0" encoding="UTF-8"?>
<!-- Generator: Adobe Illustrator 23.0.3, SVG Export Plug-In . SVG Version: 6.00 Build 0)  -->
<svg version="1.1" id="Layer_1" xmlns="http://www.w3.org/2000/svg" xmlns:xlink="http://www.w3.org/1999/xlink" x="0px" y="0px" viewBox="0 0 181 178.6" style="enable-background:new 0 0 181 178.6;" xml:space="preserve">
<style type="text/css">
	.st0{fill:#2E3656;}
</style>
<g>
	
		<image style="overflow:visible;opacity:0.35;enable-background:new    ;" width="771" height="767" xlink:href="2B0BED3F.png" transform="matrix(0.2381 0 0 0.2381 6.670000e-02 -2.7751)">
	</image>
	<g>
		<g>
			<path class="st0" d="M91.9,156.2c-37.3,0-67.7-30.3-67.7-67.7s30.4-67.7,67.7-67.7s67.7,30.4,67.7,67.7S129.2,156.2,91.9,156.2z      M91.9,24.9c-35.1,0-63.7,28.6-63.7,63.7c0,35.1,28.6,63.7,63.7,63.7c35.1,0,63.7-28.6,63.7-63.7C155.6,53.5,127,24.9,91.9,24.9z     "/>
		</g>
	</g>
</g>
<image style="overflow:visible;opacity:0.75;enable-background:new    ;" width="646" height="642" xlink:href="2B0BED3D.png" transform="matrix(0.2374 0 0 0.2374 15.1867 12.3434)">
</image>
<g>
	<g>
		<path class="st0" d="M91.9,141.1c-29,0-52.6-23.6-52.6-52.6S62.9,36,91.9,36s52.6,23.6,52.6,52.6    C144.5,117.6,120.9,141.1,91.9,141.1z M91.9,37c-28.4,0-51.6,23.1-51.6,51.6s23.1,51.6,51.6,51.6s51.6-23.1,51.6-51.6    C143.5,60.1,120.3,37,91.9,37z"/>
	</g>
</g>
<g>
	<path class="st0" d="M91.9,167.4c-8.3,0-16.5-1.3-24.3-3.8c-1.1-0.3-1.6-1.5-1.3-2.5s1.5-1.6,2.5-1.3c7.4,2.4,15.2,3.6,23.1,3.6   c7.9,0,15.7-1.2,23.2-3.6c1.1-0.3,2.2,0.2,2.5,1.3s-0.2,2.2-1.3,2.5C108.4,166.1,100.2,167.4,91.9,167.4z M29.8,135.8   c-0.6,0-1.2-0.3-1.6-0.8c-9.9-13.5-15.1-29.5-15.1-46.3c0-1.1,0.9-2,2-2l0,0c1.1,0,2,0.9,2,2c0,15.9,5,31.1,14.3,43.9   c0.7,0.9,0.5,2.1-0.4,2.8C30.6,135.6,30.2,135.8,29.8,135.8z M154,135.7c-0.4,0-0.8-0.1-1.2-0.4c-0.9-0.6-1.1-1.9-0.4-2.8   c9.3-12.8,14.3-28,14.3-43.9v-0.2c0-1.1,0.9-2,2-2s2,0.9,2,2v0.2c0,16.8-5.2,32.8-15,46.3C155.3,135.4,154.7,135.7,154,135.7z    M29.7,45.5c-0.4,0-0.8-0.1-1.2-0.4c-0.9-0.7-1.1-1.9-0.4-2.8c9.7-13.4,23.7-23.6,39.4-28.7c1.1-0.3,2.2,0.2,2.5,1.3   s-0.2,2.2-1.3,2.5c-14.9,4.9-28.1,14.5-37.3,27.2C30.9,45.2,30.3,45.5,29.7,45.5z M153.9,45.3c-0.6,0-1.2-0.3-1.6-0.8   c-9.3-12.7-22.6-22.3-37.4-27.1c-1.1-0.3-1.6-1.5-1.3-2.5s1.5-1.6,2.5-1.3c15.7,5.1,29.7,15.2,39.4,28.6c0.6,0.9,0.5,2.1-0.4,2.8   C154.8,45.2,154.4,45.3,153.9,45.3z"/>
</g>
</svg>