<svg xmlns="http://www.w3.org/2000/svg" xmlns:xlink="http://www.w3.org/1999/xlink" viewBox="0 0 712.11 721.46"><defs><linearGradient id="a" x1="43.3" y1="705.61" x2="73.57" y2="705.61" gradientUnits="userSpaceOnUse"><stop offset="0" stop-color="#343434"/><stop offset="1" stop-color="#474747"/></linearGradient><linearGradient id="b" x1="58.63" y1="88.84" x2="133.68" y2="88.84" xlink:href="#a"/><linearGradient id="c" y1="230" x2="200.23" y2="230" gradientUnits="userSpaceOnUse"><stop offset="0" stop-color="#fdfbfb"/><stop offset="1" stop-color="#ebedee"/></linearGradient><linearGradient id="d" x1="19.01" y1="255.82" x2="42.34" y2="255.82" xlink:href="#c"/></defs><title>collect_dataAsset 5</title><rect x="201.57" y="30.71" width="509.88" height="516.77" style="fill:#fff;stroke:#f2f2f2;stroke-miterlimit:10;stroke-width:1.3313758573929182px"/><line x1="201.57" y1="112.02" x2="710.07" y2="112.02" style="fill:none;stroke:#f2f2f2;stroke-miterlimit:10;stroke-width:1.3313758573929182px"/><line x1="201.57" y1="456.53" x2="710.07" y2="456.53" style="fill:#fff;stroke:#f2f2f2;stroke-miterlimit:10;stroke-width:1.3313758573929182px"/><rect x="446.86" y="479.95" width="110.24" height="44.1" style="fill:none;stroke:#07d7a7;stroke-miterlimit:10;stroke-width:1.3780418975661444px"/><rect x="568.13" y="479.95" width="110.24" height="44.1" style="fill:#07d7a7"/><path d="M254.53,80l-1.83-4.25h-9.15L241.73,80h-5.44l9.61-20.62h4.28L259.88,80Zm-9.22-8.32h5.62l-2.82-6.51Z" style="fill:#00617b"/><path d="M276.23,58.68l0,21.3h-5.15V78a4.28,4.28,0,0,1-1.85,1.63,5.9,5.9,0,0,1-2.66.6,6,6,0,0,1-3.35-1,6.44,6.44,0,0,1-2.31-2.72,9.37,9.37,0,0,1-.83-4,9.21,9.21,0,0,1,.82-4,6.25,6.25,0,0,1,2.3-2.68,6.15,6.15,0,0,1,3.35-1,5.76,5.76,0,0,1,2.56.58A4.78,4.78,0,0,1,271,67V58.69Zm-5.88,16.67a4.5,4.5,0,0,0,.75-2.79,4.4,4.4,0,0,0-.77-2.74,2.57,2.57,0,0,0-2.13-1,2.6,2.6,0,0,0-2.17.94,4.27,4.27,0,0,0-.75,2.71,4.57,4.57,0,0,0,.77,2.82,2.57,2.57,0,0,0,2.16,1A2.54,2.54,0,0,0,270.35,75.35Z" style="fill:#00617b"/><path d="M294.83,58.66l0,21.3h-5.15V78a4.37,4.37,0,0,1-1.85,1.64,6.33,6.33,0,0,1-6-.37,6.49,6.49,0,0,1-2.3-2.72,9.33,9.33,0,0,1-.83-4,9.22,9.22,0,0,1,.82-4,6.23,6.23,0,0,1,2.29-2.68,6.07,6.07,0,0,1,3.36-.94,5.65,5.65,0,0,1,2.56.57A4.94,4.94,0,0,1,289.61,67V58.66ZM289,75.32a5.41,5.41,0,0,0,0-5.53,2.9,2.9,0,0,0-4.29,0,4.27,4.27,0,0,0-.75,2.71,4.57,4.57,0,0,0,.77,2.82,2.84,2.84,0,0,0,4.29,0Z" style="fill:#00617b"/><path d="M306.67,79.94l0-20.61,14.39,0v4.26h-9v3.76h8.45v4.23H312v8.36Z" style="fill:#00617b"/><path d="M326.12,79.21a6.54,6.54,0,0,1-2.81-2.65,8.94,8.94,0,0,1,0-8.16,6.56,6.56,0,0,1,2.8-2.67,9.31,9.31,0,0,1,4.28-.93,9,9,0,0,1,4.24.93,6.72,6.72,0,0,1,2.8,2.66,8,8,0,0,1,1,4.06,8.12,8.12,0,0,1-1,4.07,6.66,6.66,0,0,1-2.79,2.67,9,9,0,0,1-4.24.94A9.21,9.21,0,0,1,326.12,79.21Zm7.11-6.75a4.61,4.61,0,0,0-.71-2.82,2.54,2.54,0,0,0-2.13-.91,2.59,2.59,0,0,0-2.17.92,5.91,5.91,0,0,0,0,5.67,2.58,2.58,0,0,0,2.17.91C332.29,76.22,333.23,75,333.23,72.46Z" style="fill:#00617b"/><path d="M351.8,65.14v4.77a5.76,5.76,0,0,0-2.4-.57q-3.3,0-3.29,3.16v7.38h-5.24V69.41a37.2,37.2,0,0,0-.24-4.22h4.92l.32,2.46a4.1,4.1,0,0,1,1.67-2.09,4.83,4.83,0,0,1,2.61-.72A3.41,3.41,0,0,1,351.8,65.14Z" style="fill:#00617b"/><path d="M375.8,66.29A7.58,7.58,0,0,1,377,71.06v8.77h-5.23l0-8.62a3.44,3.44,0,0,0-.39-1.88,1.47,1.47,0,0,0-1.32-.58,2,2,0,0,0-1.7.81,3.73,3.73,0,0,0-.61,2.29v8h-5.24V71.23a3.46,3.46,0,0,0-.4-1.88,1.52,1.52,0,0,0-1.31-.58,2,2,0,0,0-1.69.82,3.84,3.84,0,0,0-.59,2.28v8h-5.24V69.39a33.07,33.07,0,0,0-.24-4.22H358l.26,2a4.55,4.55,0,0,1,1.87-1.82,5.74,5.74,0,0,1,2.76-.64,4.25,4.25,0,0,1,4.29,2.65,5.9,5.9,0,0,1,2.06-1.94,5.64,5.64,0,0,1,2.8-.72A4.48,4.48,0,0,1,375.8,66.29Z" style="fill:#00617b"/><path d="M250.46,132.6l0,14.23h-1.92l-7.69-10,0,10h-2.4l0-14.23h1.92l7.67,9.95,0-10Z" style="fill:#00617b"/><path d="M263.06,146.81H260.6v-1.62a3.35,3.35,0,0,1-1.32,1.32,4,4,0,0,1-2,.47,4.28,4.28,0,0,1-2.34-.64,4.15,4.15,0,0,1-1.58-1.82,6.31,6.31,0,0,1-.56-2.73,6.44,6.44,0,0,1,.56-2.77,4.46,4.46,0,0,1,1.59-1.88,4.1,4.1,0,0,1,2.32-.67,4,4,0,0,1,2,.46,3.33,3.33,0,0,1,1.32,1.31v-1.52H263Zm-2.47-5.07a3.9,3.9,0,0,0-.68-2.46,2.33,2.33,0,0,0-1.94-.86,2.29,2.29,0,0,0-1.93.9,3.85,3.85,0,0,0-.68,2.46,3.69,3.69,0,0,0,.69,2.4A2.38,2.38,0,0,0,258,145a2.32,2.32,0,0,0,1.92-.86A3.85,3.85,0,0,0,260.59,141.74Z" style="fill:#00617b"/><path d="M281.08,140.59v6.19h-2.5v-6.12a3,3,0,0,0-.39-1.73,1.5,1.5,0,0,0-1.29-.53,2,2,0,0,0-1.63.74,3.1,3.1,0,0,0-.58,2v5.63h-2.5v-6.12a2.81,2.81,0,0,0-.42-1.72,1.5,1.5,0,0,0-1.28-.54,2,2,0,0,0-1.64.74,3.05,3.05,0,0,0-.6,2v5.63h-2.48v-7.24a24.34,24.34,0,0,0-.16-2.86h2.33l.19,1.6a3.13,3.13,0,0,1,1.26-1.38,3.87,3.87,0,0,1,1.91-.49,2.87,2.87,0,0,1,3,1.92,3.51,3.51,0,0,1,1.37-1.41,4,4,0,0,1,2-.52,3.11,3.11,0,0,1,2.56,1A4.89,4.89,0,0,1,281.08,140.59Z" style="fill:#00617b"/><path d="M285.63,141.86a3.63,3.63,0,0,0,.81,2.39,2.87,2.87,0,0,0,2.17.76,5,5,0,0,0,3.08-1.08l.72,1.72a5.7,5.7,0,0,1-1.77.93,6.79,6.79,0,0,1-2.13.35,5.33,5.33,0,0,1-3.9-1.39,5.16,5.16,0,0,1-1.42-3.84,5.82,5.82,0,0,1,.62-2.74,4.6,4.6,0,0,1,1.73-1.87,4.91,4.91,0,0,1,2.54-.67,4.2,4.2,0,0,1,3.29,1.34,5.35,5.35,0,0,1,1.21,3.71v.38Zm.08-1.34h4.69a2.81,2.81,0,0,0-.69-1.72,2.12,2.12,0,0,0-1.57-.57,2.31,2.31,0,0,0-1.63.59A2.89,2.89,0,0,0,285.71,140.52Z" style="fill:#00617b"/><path d="M243.7,227.92a7.44,7.44,0,0,1,5.43,1.85,6.91,6.91,0,0,1,1.94,5.23,7,7,0,0,1-1.92,5.27,7.48,7.48,0,0,1-5.42,1.88h-5.24l0-14.23Zm4.77,7.09c0-3.33-1.64-5-4.92-5h-2.5l0,10h2.49C246.84,240.05,248.48,238.36,248.47,235Z" style="fill:#00617b"/><path d="M255.42,237.21a3.61,3.61,0,0,0,.81,2.39,2.87,2.87,0,0,0,2.17.77,5.08,5.08,0,0,0,3.08-1.09l.72,1.72a5.5,5.5,0,0,1-1.77.93,6.8,6.8,0,0,1-2.13.36,5.34,5.34,0,0,1-3.9-1.4,5.15,5.15,0,0,1-1.42-3.83,5.91,5.91,0,0,1,.61-2.74,4.56,4.56,0,0,1,1.74-1.87,4.83,4.83,0,0,1,2.54-.68,4.21,4.21,0,0,1,3.29,1.35,5.37,5.37,0,0,1,1.21,3.7v.38Zm.07-1.33h4.7a2.81,2.81,0,0,0-.69-1.72,2.08,2.08,0,0,0-1.57-.58,2.3,2.3,0,0,0-1.63.59A2.93,2.93,0,0,0,255.49,235.88Z" style="fill:#00617b"/><path d="M264.54,239.24a6,6,0,0,0,3.7,1.19,2.68,2.68,0,0,0,1.39-.3.92.92,0,0,0,.48-.84.87.87,0,0,0-.34-.73,3.18,3.18,0,0,0-1.16-.47l-1.67-.37c-1.84-.4-2.76-1.34-2.77-2.82a2.69,2.69,0,0,1,.52-1.63,3.41,3.41,0,0,1,1.46-1.11,5.42,5.42,0,0,1,2.17-.4,6.85,6.85,0,0,1,2.08.32,5.42,5.42,0,0,1,1.76.95l-.73,1.7a5.27,5.27,0,0,0-3.12-1.11,2.41,2.41,0,0,0-1.34.32,1,1,0,0,0-.48.88.9.9,0,0,0,.29.7,2.42,2.42,0,0,0,1,.43l1.72.38a4.4,4.4,0,0,1,2.19,1,2.54,2.54,0,0,1,.69,1.85,2.6,2.6,0,0,1-1.11,2.22,5.14,5.14,0,0,1-3.06.82,6.87,6.87,0,0,1-4.36-1.27Z" style="fill:#00617b"/><path d="M274.58,239.81a5.69,5.69,0,0,1-.63-2.74,5.77,5.77,0,0,1,.65-2.78,4.58,4.58,0,0,1,1.83-1.87,5.5,5.5,0,0,1,2.75-.68,6.4,6.4,0,0,1,2.09.34,4,4,0,0,1,1.61.94l-.7,1.75a4.89,4.89,0,0,0-1.36-.78,4,4,0,0,0-1.42-.27,2.7,2.7,0,0,0-2.11.85,4.34,4.34,0,0,0,0,4.89,2.71,2.71,0,0,0,2.13.84,4.26,4.26,0,0,0,1.42-.28,5.15,5.15,0,0,0,1.36-.81l.7,1.76a4.33,4.33,0,0,1-1.65.94,6.66,6.66,0,0,1-2.14.34,5.42,5.42,0,0,1-2.74-.63A4.31,4.31,0,0,1,274.58,239.81Z" style="fill:#00617b"/><path d="M291,234.18a3.57,3.57,0,0,0-1.32-.26,2.45,2.45,0,0,0-1.94.75,2.78,2.78,0,0,0-.67,2v5.45h-2.48v-7.24a24.19,24.19,0,0,0-.17-2.86h2.34l.2,1.78a3,3,0,0,1,1.2-1.5,3.46,3.46,0,0,1,1.86-.53,3,3,0,0,1,1,.16Z" style="fill:#00617b"/><path d="M295,227.4v2.46h-2.78v-2.45ZM292.4,232h2.48v10.09h-2.47Z" style="fill:#00617b"/><path d="M307.27,234.25a6.39,6.39,0,0,1,.57,2.76,6.21,6.21,0,0,1-.56,2.74,4.17,4.17,0,0,1-1.56,1.82,4.23,4.23,0,0,1-2.33.65,4.06,4.06,0,0,1-2-.47,3.26,3.26,0,0,1-1.32-1.31v5.94h-2.48l0-11.55a22.35,22.35,0,0,0-.16-2.86h2.34l.2,1.74a3,3,0,0,1,1.3-1.47,4,4,0,0,1,2.07-.54,4.18,4.18,0,0,1,2.32.67A4.51,4.51,0,0,1,307.27,234.25ZM305.32,237a4,4,0,0,0-.68-2.47,2.3,2.3,0,0,0-1.92-.89,2.37,2.37,0,0,0-2,.87,3.83,3.83,0,0,0-.67,2.46,3.73,3.73,0,0,0,.68,2.42,2.33,2.33,0,0,0,1.94.85,2.36,2.36,0,0,0,1.94-.84A3.75,3.75,0,0,0,305.32,237Z" style="fill:#00617b"/><path d="M313.14,238.35c0,1.18.56,1.77,1.67,1.77a3.39,3.39,0,0,0,1-.16v2a4.69,4.69,0,0,1-1.6.24,3.49,3.49,0,0,1-2.64-1,3.85,3.85,0,0,1-.92-2.76v-4.64H308.7V232h1.94v-2.46l2.5-.84V232h2.67v1.88h-2.67Z" style="fill:#00617b"/><path d="M320.15,227.36v2.46h-2.78v-2.45Zm-2.62,4.58H320L320,242h-2.48Z" style="fill:#00617b"/><path d="M322.84,239.72a5.75,5.75,0,0,1-.64-2.79,5.92,5.92,0,0,1,.63-2.79,4.39,4.39,0,0,1,1.79-1.83,5.62,5.62,0,0,1,2.71-.64,5.42,5.42,0,0,1,2.68.64,4.36,4.36,0,0,1,1.79,1.82,6.54,6.54,0,0,1,0,5.58,4.45,4.45,0,0,1-1.79,1.83,5.39,5.39,0,0,1-2.68.64,5.61,5.61,0,0,1-2.7-.63A4.35,4.35,0,0,1,322.84,239.72Zm7.1-2.8a3.91,3.91,0,0,0-.69-2.47,2.62,2.62,0,0,0-3.85,0,3.85,3.85,0,0,0-.68,2.47,3.93,3.93,0,0,0,.67,2.47,2.69,2.69,0,0,0,3.88,0A3.91,3.91,0,0,0,329.94,236.92Z" style="fill:#00617b"/><path d="M344,242h-2.5v-6.07a2.66,2.66,0,0,0-.46-1.75,1.74,1.74,0,0,0-1.42-.55,2.46,2.46,0,0,0-1.84.73,2.66,2.66,0,0,0-.69,1.93V242h-2.47l0-7.24a22.19,22.19,0,0,0-.16-2.85h2.34l.18,1.66a3.77,3.77,0,0,1,1.41-1.42,4,4,0,0,1,2-.5q3.61,0,3.62,4.15Z" style="fill:#00617b"/><rect x="237.4" y="258.09" width="440.97" height="169.5" style="fill:none;stroke:#f2f2f2;stroke-miterlimit:10;stroke-width:1.3313758573929182px"/><rect x="237.4" y="163.01" width="440.97" height="44.1" style="fill:none;stroke:#f2f2f2;stroke-miterlimit:10;stroke-width:1.3313758573929182px"/><rect x="253.93" y="273.25" width="407.9" height="24.6" style="fill:#f0f5f7"/><rect x="253.93" y="307.92" width="407.9" height="24.6" style="fill:#f0f5f7"/><rect x="253.93" y="342.58" width="326.6" height="24.6" style="fill:#f0f5f7"/><rect x="253.93" y="173.23" width="217.57" height="24.6" style="fill:#f0f5f7"/><line x1="648.82" y1="86.55" x2="674.54" y2="60.83" style="fill:none;stroke:#00617b;stroke-miterlimit:10;stroke-width:4.998779457663815px"/><line x1="648.82" y1="60.83" x2="674.54" y2="86.55" style="fill:none;stroke:#00617b;stroke-miterlimit:10;stroke-width:4.998779457663815px"/><circle cx="200.88" cy="30.39" r="30.39" style="fill:#07d7a7"/><line x1="200.16" y1="17.37" x2="200.16" y2="43.38" style="fill:none;stroke:#fff;stroke-miterlimit:10;stroke-width:4.341318234490542px"/><line x1="213.88" y1="30.39" x2="187.86" y2="30.39" style="fill:none;stroke:#fff;stroke-miterlimit:10;stroke-width:4.341318234490542px"/><path d="M5.87,286.73S-1.33,299,7.31,366.66c0,0-7.92,31.68,2.16,43.2s25.2,5.76,19.44-31.68c0,0-5-4.32-6.48-32.4,0,0,10.08-37.45,11.52-52.57S5.87,286.73,5.87,286.73Z" style="fill:#d0ada7"/><path d="M30.35,371l119.53-11.52S124,415.62,85.8,417.06,30.35,371,30.35,371Z" style="fill:#84dffd"/><path d="M29.11,370.58l4.12-19,115.21-2.88s4.32,13,3.6,32.4S29.11,370.58,29.11,370.58Z" style="fill:#84dffd"/><path d="M29.18,370.26S18,423.2,27.65,482.76a267.94,267.94,0,0,1,2.52,61.54c-2.82,40.55-5.32,104.13,4.33,127.81,0,0,27.92,8,34.57-4,0,0,6.73-18,5.61-69A585.91,585.91,0,0,1,90.51,451.45l9.14-38.63,10.64-43.89Z" style="fill:#84dffd"/><path d="M113,388.88c-5.32,13.3-22.61,18.62-22.61,18.62S91.67,466,93,505.9s-2.66,151.58-2.66,151.58c18.62,29.26,34.58-1.33,34.58-1.33a762.16,762.16,0,0,0,9-89.53,620.27,620.27,0,0,1,12.67-105.73c10.68-50.62,3.59-102.59,3.59-102.59" style="fill:#84dffd"/><path d="M113,388.88c-5.32,13.3-22.61,18.62-22.61,18.62S90.18,428,90.83,453" style="fill:none;stroke:#0abffc;stroke-miterlimit:10;stroke-width:1.65764775276184px"/><path d="M94.64,665.47s-5.15,19.68.94,30c0,0,15.93,6.09,25.77-1.41,0,0,23-23,5.62-30C127,664.07,101.2,660.79,94.64,665.47Z" style="fill:#4d4d4d"/><path d="M69.07,668.12c2.79,1.21,9.64,20.31,3.55,32.49,0,0,0,18.74-12.65,19.21s-25.76,7-26.7-9.84c0,0,.94-7,5.62-9.84l-4.39-28S55.67,662.34,69.07,668.12Z" style="fill:#4d4d4d"/><path d="M72.62,700.61a19.15,19.15,0,0,0,.95-2.23c-1.07-3.9-3.23-6.82-6.34-8C60,687.55,50.41,695,45.76,707a33.88,33.88,0,0,0-2.39,14.51c4.8.09,10.75-1.42,16.6-1.64C72.62,719.35,72.62,700.61,72.62,700.61Z" style="fill:url(#a)"/><path d="M185.38,68.27s-5.72-8.27-3-10.06,6.22,6.84,6.22,6.84Z" style="fill:#c4a19d"/><path d="M182.1,86.92s1.08-25.39,4.86-27.55,8.11-21.06,8.11-21.06,7.56-7-1.08,19.44c0,0,5.4-1.08,5.94,2.7,0,0,6.48-.54,5.94,4.32,0,0,5.4-3.24,5.4,3.24L199.82,91Z" style="fill:#d0ada7"/><path d="M80.7,141.91,78.08,119S42.83,89.68,74.63,60.63c26.44-24.14,48.29-6.86,53.67,23s14.17,53.36-18.43,53.46l.1,7.24-27.9,3.19Z" style="fill:#d0ada7"/><path d="M105.55,109.53a32.9,32.9,0,0,1,.33,6.1c-.65,5.17-1.4,15.44-7.3,15.62-8.67.27-20.52,6.61-20.5-12.24h0s-43.15-41.45-.92-65.12,70.48,7.89,49.34,13.2c0,0-11.48,13.64-10.09,25.8,1,8.41,2,14,2.47,16.72a2.17,2.17,0,0,1-1.38,2.45h0a2.19,2.19,0,0,1-2.92-1.63l-1.14-5.88a2.63,2.63,0,0,0-4.55-1.27S105.2,105.39,105.55,109.53Z" style="fill:url(#b)"/><path d="M191.29,83.67a9.19,9.19,0,0,0-9.67,9.42c.1,3.27-7.26,43.15-7.26,43.15l-15.12,18a49.86,49.86,0,0,0-27.36,0l-8.64-6.48s-3.6-13-26.64-13S70,150.64,70,150.64L34,164.32s-14.4,7.2-13.68,25.92-13,54-13,54-12.24,20.16-5,34.56S24.59,297.53,34,293.21l7.2-25.2s2.88-13,0-51.12l.89,1c2.48,20.53,3.22,64.39-1.61,82.48-5.76,21.61-7.92,56.17-7.92,56.17,69.13,41.76,112.33,4.32,112.33,4.32l-1.36-2,1.36,1.27A53.48,53.48,0,0,0,153.36,347c2-1.25,7.48-8.31-3.48-47.26-13-46.08,13-49.68,12.24-93.6,0,0,33.85-20.17,36-59.77,1.11-20.42,2.91-49,1.69-55.3a9.16,9.16,0,0,0-8.53-7.35Z" style="fill:url(#c)"/><path d="M41,216.89s3.42,35.82-.54,52.38l-6.66,24.3s-7.92,2.52-14.76.18Z" style="opacity:0.1;fill:url(#d)"/></svg>