<svg xmlns="http://www.w3.org/2000/svg" xmlns:xlink="http://www.w3.org/1999/xlink" viewBox="0 0 371.91 406.18"><defs><linearGradient id="a" x1="705.77" y1="38.52" x2="-224.69" y2="290.03" gradientUnits="userSpaceOnUse"><stop offset="0" stop-color="#f5f5f5"/><stop offset="1" stop-color="#fcfcfc"/></linearGradient><clipPath id="c"><polygon points="0 38.14 0 281.79 371.91 319.93 371.91 0 0 38.14" style="fill:url(#a)"/></clipPath><linearGradient id="d" x1="717.95" y1="83.61" x2="-212.51" y2="335.12" xlink:href="#a"/><linearGradient id="e" x1="357.95" y1="175.96" x2="187.88" y2="145.47" gradientUnits="userSpaceOnUse"><stop offset="0" stop-color="#e8e8e8"/><stop offset="1" stop-color="#f5f5f5"/></linearGradient><clipPath id="f"><polygon points="47.37 224.37 47.37 59.97 267 52.37 267 231.97 47.37 224.37" style="fill:none"/></clipPath><clipPath id="g"><polygon points="215.79 144.33 215.79 37.75 311.49 35.66 311.49 146.42 215.79 144.33" style="fill:none"/></clipPath><linearGradient id="h" x1="-4341.43" y1="395.75" x2="-4196.65" y2="395.75" gradientTransform="matrix(-1, 0, 0, 1, -4151.08, 0)" xlink:href="#a"/><linearGradient id="i" x1="-4269.34" y1="393.26" x2="-4243.04" y2="393.26" gradientTransform="matrix(-1, 0, 0, 1, -4151.08, 0)" gradientUnits="userSpaceOnUse"><stop offset="0" stop-color="#343434"/><stop offset="1" stop-color="#474747"/></linearGradient><linearGradient id="j" x1="58.45" y1="317.36" x2="118.04" y2="317.36" gradientTransform="matrix(1, 0, 0, 1, 0, 0)" xlink:href="#i"/><linearGradient id="k" x1="-4226.17" y1="393.26" x2="-4209.8" y2="393.26" xlink:href="#i"/><linearGradient id="l" x1="80.66" y1="126.42" x2="111.2" y2="126.42" gradientTransform="matrix(1, 0, 0, 1, 0, 0)" xlink:href="#i"/></defs><title>VisualizingAsset 43</title><g style="isolation:isolate"><polygon points="0 38.14 0 281.79 371.91 319.93 371.91 0 0 38.14" style="fill:url(#a)"/><g style="clip-path:url(#c)"><path d="M248.08,202.51a2.25,2.25,0,0,0,1.09-1.94c-.39-4-17.59-21.2-17.59-21.2-2-5.3-11.73-7.48-11.73-7.48l-14.46-6.55a10.06,10.06,0,0,0-5.24-4.08h0c1.64-1.89,4.44-7.83,5.75-10.71,1.94-3.25,1.82-5.37,0-7-1.3-2.64-4.52-5.28-12.18-5.36C175.59,138,181.54,149,181.54,149s-4,13.27,3.06,16.07l1-.09a3.46,3.46,0,0,0-.55,2.27c-18.38,5.93-23.46,12.47-23.46,12.47-14.86,15-14.86,29.62-14.86,29.62l1.6.06s14.79,23.86,26.12,28.53l0,4.76.37,0c-.43,12,0,30.71,5.1,45.16,0,0-.26,4.84.06,12.4l14.2,1.46c-.31-4.93-.64-9.24-1-11.68,0,0,5.47-28.68,5.47-37.72,0,0,6.25,26.68,10.19,36.82-.07.55.16,3.61,1.53,14.24l15.32,1.57a76.48,76.48,0,0,0-3.19-19.9s1.4-28.32.59-44.05a19.49,19.49,0,0,0,1.36-2.08,22.68,22.68,0,0,1-.95-7.21,17.44,17.44,0,0,0,6-1.52,159.59,159.59,0,0,0,17.21-20.82c4.69-4,1.26-6.85,1.26-6.85Zm-86.87,7.41a36,36,0,0,1,2.68-6.49,33.09,33.09,0,0,1,10.22-9.72l.28,35.24S166.68,226.75,161.21,209.92Zm75.06-3.74s-5.47,19.64-12.52,19c.67-12.05,3.14-26.79,3.14-26.79l5.47,2.94,2.35,4.85s1.15-.12,2.8-.38Z" style="opacity:0.01;fill:url(#d)"/></g><polygon points="49.57 90.78 278.99 56.34 267.11 205.57 61.89 228.34 49.57 90.78" style="fill:url(#e)"/><g style="isolation:isolate"><g style="clip-path:url(#f)"><path d="M86.64,106.78a11.21,11.21,0,0,0-4,.81,13.45,13.45,0,0,0-3.6,2.14A14.54,14.54,0,0,0,76.19,113a13.75,13.75,0,0,0-1.8,4,13.27,13.27,0,0,0-.39,2.28,11.72,11.72,0,0,0,0,2.22,10.59,10.59,0,0,0,.44,2.1,9.8,9.8,0,0,0,.86,1.93c.07.13.15.26.23.39l.26.37.27.36c.09.12.19.23.28.34l.2-.21a8.67,8.67,0,0,0,3,2.12,9,9,0,0,0,1.79.54,10.29,10.29,0,0,0,1.94.18h.45l.22,0h.23a11.86,11.86,0,0,0,4.41-1.36,14,14,0,0,0,3.69-2.91,14.58,14.58,0,0,0,2.55-4,12.89,12.89,0,0,0,1-4.67h.31a11.06,11.06,0,0,0-.08-1.42,12.45,12.45,0,0,0-.26-1.38,9.59,9.59,0,0,0-.44-1.31,8.8,8.8,0,0,0-.61-1.23,9.32,9.32,0,0,0-1.17-1.59,9,9,0,0,0-3.15-2.19,9.91,9.91,0,0,0-1.9-.55l-.48-.08-.48,0-.48,0h-.49m92-11a11.83,11.83,0,0,0-2,.19,13.32,13.32,0,0,0-1.95.51,13,13,0,0,0-1.89.82,14.6,14.6,0,0,0-1.79,1.1l0,0a14.73,14.73,0,0,0-1.82,1.62,14.44,14.44,0,0,0-2.7,4,14.1,14.1,0,0,0-.82,2.25,13.18,13.18,0,0,0-.43,2.36,11.75,11.75,0,0,0,0,2.3,10.58,10.58,0,0,0,.47,2.18,10.39,10.39,0,0,0,.93,2,9.06,9.06,0,0,0,1.24,1.64,9.2,9.2,0,0,0,1.54,1.31,9.78,9.78,0,0,0,1.81,1,11.17,11.17,0,0,0,2,.58l.52.08.53.06.53,0h.53a11.18,11.18,0,0,0,1.29-.09,11.59,11.59,0,0,0,1.29-.22q.66-.15,1.29-.36c.43-.15.85-.32,1.28-.51l0,.07a14.91,14.91,0,0,0,6.65-6.41,15,15,0,0,0,1.15-2.89,13.46,13.46,0,0,0,.46-2.83,11.51,11.51,0,0,0-.18-2.7,10.45,10.45,0,0,0-.81-2.48,9.62,9.62,0,0,0-1.41-2.17h0A9.24,9.24,0,0,0,185.23,98a9.58,9.58,0,0,0-1.37-.91,8.78,8.78,0,0,0-1.53-.68,11.2,11.2,0,0,0-1.66-.42l-.52-.08-.52,0-.52,0a4.51,4.51,0,0,0-.52,0m-65.68,94.46-.27-3.05,15.79-1.35.28,3.07-15.8,1.33m0-5.54-.28-3,27-2.38.29,3.08-27,2.34M207,182.83l-.31-3.16,21.82-1.86.3,3.18L207,182.83m-94.09-4.15-.27-3,27-2.44.28,3.07-27,2.41M92.76,194.17l-.16,0a.5.5,0,0,1-.14-.1.38.38,0,0,1-.09-.15.53.53,0,0,1,0-.18V173.25a.41.41,0,0,1,0-.19.48.48,0,0,1,.1-.17.44.44,0,0,1,.15-.12.6.6,0,0,1,.19-.06l5.73-.53h0a.41.41,0,0,1,.16,0,.5.5,0,0,1,.14.1.38.38,0,0,1,.09.15.48.48,0,0,1,0,.18v8.47h0v12a.64.64,0,0,1,0,.2.62.62,0,0,1-.11.17.47.47,0,0,1-.33.17l-5.74.48h0M207,177.09l-.3-3.16,37.85-3.33.31,3.22L207,177.09m-43,2.39V169.22a.48.48,0,0,1,0-.2.59.59,0,0,1,.1-.17.61.61,0,0,1,.16-.12.36.36,0,0,1,.2-.06l6.07-.55h.07a.58.58,0,0,1,.18,0,.45.45,0,0,1,.14.1.38.38,0,0,1,.09.15.53.53,0,0,1,0,.18v10.24h0v0h0v8.26a.65.65,0,0,1,0,.2,1,1,0,0,1-.11.17l-.16.13a.46.46,0,0,1-.2,0l-6.07.51h-.05a.58.58,0,0,1-.18,0,.71.71,0,0,1-.14-.1.4.4,0,0,1-.1-.15.58.58,0,0,1,0-.19V179.5h0M72,175.12V164.73a.63.63,0,0,1,0-.19,1,1,0,0,1,.1-.17,1.58,1.58,0,0,1,.15-.12.41.41,0,0,1,.18-.05l5.64-.54h0l.17,0a.34.34,0,0,1,.14.09.38.38,0,0,1,.09.15.48.48,0,0,1,0,.18v10.36h0v20.35a.48.48,0,0,1,0,.2.54.54,0,0,1-.1.16.44.44,0,0,1-.15.12.55.55,0,0,1-.18.06l-5.63.46h0a.41.41,0,0,1-.16,0,.71.71,0,0,1-.14-.1.67.67,0,0,1-.09-.14.57.57,0,0,1,0-.18l0-20.28h0m135-4.31-.31-3.16L235.81,165l.31,3.2L207,170.81m-20.69,15.55-.18,0a.56.56,0,0,1-.15-.1,1.3,1.3,0,0,1-.1-.15.58.58,0,0,1,0-.19l0-21.24a.45.45,0,0,1,0-.2.54.54,0,0,1,.11-.18.76.76,0,0,1,.17-.13.66.66,0,0,1,.2-.06l6.18-.56h.05l.18,0a.56.56,0,0,1,.15.1.4.4,0,0,1,.1.15.58.58,0,0,1,0,.19v8.79h0v12.47a.46.46,0,0,1,0,.21.42.42,0,0,1-.11.18.48.48,0,0,1-.16.12.66.66,0,0,1-.2.06l-6.19.51h-.05m-103.45.15,0-22.81a.65.65,0,0,1,0-.2.59.59,0,0,1,.1-.17.57.57,0,0,1,.15-.12.6.6,0,0,1,.19-.06L89,162.6h0a.47.47,0,0,1,.17,0,.3.3,0,0,1,.13.09.38.38,0,0,1,.09.15.34.34,0,0,1,0,.18l0,30.88a.45.45,0,0,1,0,.2.34.34,0,0,1-.1.16.44.44,0,0,1-.15.12.55.55,0,0,1-.18.06l-5.68.47h-.06a.33.33,0,0,1-.17,0,.3.3,0,0,1-.13-.09.38.38,0,0,1-.09-.15.48.48,0,0,1,0-.18v-7.94h0m93.22.7a.37.37,0,0,1-.18,0,.46.46,0,0,1-.25-.25.52.52,0,0,1,0-.18l0-32a.45.45,0,0,1,0-.2.39.39,0,0,1,.11-.17.4.4,0,0,1,.16-.13.66.66,0,0,1,.2-.06l6.13-.6h0a.34.34,0,0,1,.18,0,.38.38,0,0,1,.15.09.65.65,0,0,1,.1.15.58.58,0,0,1,0,.19v9.29h0l0,22.76a.54.54,0,0,1-.15.37.51.51,0,0,1-.16.13.66.66,0,0,1-.2.06l-6.13.51h-.05m-63.21-75.43-.28-3,27-3.18.29,3.06-27,3.15m0-5.52-.28-3.05,27-3.24.28,3.08-27,3.21M69.14,134.78c-.23-.26-.45-.52-.67-.79s-.43-.55-.63-.83-.4-.57-.59-.87-.38-.6-.56-.9a21.61,21.61,0,0,1-1.78-4A22.19,22.19,0,0,1,64,123.1a23.77,23.77,0,0,1-.09-4.47A25.25,25.25,0,0,1,73,101a23.65,23.65,0,0,1,6.47-3.84,21.2,21.2,0,0,1,7.24-1.47h.94c.31,0,.62,0,.93.05l.94.09.93.14a19.8,19.8,0,0,1,4,1.16,18.86,18.86,0,0,1,6.69,4.69,20.72,20.72,0,0,1,3.84,6.08,21.06,21.06,0,0,1,.94,2.81,22.11,22.11,0,0,1,.56,2.94,23.22,23.22,0,0,1,.16,3h.16a24.73,24.73,0,0,1-1.84,8.93,26.18,26.18,0,0,1-4.71,7.57,24.72,24.72,0,0,1-6.86,5.42,21.53,21.53,0,0,1-8.27,2.49l-.44,0-.45,0h-.87a20,20,0,0,1-4-.41,19.33,19.33,0,0,1-3.8-1.21,19.1,19.1,0,0,1-3.46-2,19.51,19.51,0,0,1-3-2.67l.13-.14m43.7-34.56-.28-3,27-3.31.28,3.07-27,3.28M165,88.94a25.67,25.67,0,0,1,3.18-2,23.86,23.86,0,0,1,3.34-1.44,23.51,23.51,0,0,1,3.46-.91,23.08,23.08,0,0,1,3.52-.36h1l1,0,1.05.1c.34,0,.69.09,1,.15a21.09,21.09,0,0,1,3.5.88,20.77,20.77,0,0,1,3.23,1.44,19.66,19.66,0,0,1,2.92,2,20,20,0,0,1,2.56,2.48h0a20.57,20.57,0,0,1,3,4.54,21.59,21.59,0,0,1,1.75,5.17,23.39,23.39,0,0,1,.46,5.56,25,25,0,0,1-.88,5.7,26.37,26.37,0,0,1-2.15,5.35,27.14,27.14,0,0,1-3.24,4.73,26.55,26.55,0,0,1-4.15,3.92,25.32,25.32,0,0,1-4.9,2.93l0-.07c-.76.33-1.52.62-2.29.87a21.66,21.66,0,0,1-2.33.62,20.73,20.73,0,0,1-2.34.38,23.15,23.15,0,0,1-2.35.14l-1,0-1-.07-1-.11-1-.16a21.4,21.4,0,0,1-4.26-1.26,19.66,19.66,0,0,1-3.8-2.07,20.31,20.31,0,0,1-3.26-2.82,21.57,21.57,0,0,1-2.64-3.52,22.12,22.12,0,0,1-2.93-8.58,23.14,23.14,0,0,1-.11-4.64,25.89,25.89,0,0,1,2.33-8.87A26.74,26.74,0,0,1,165,88.88l0,.06M266.87,52.38,47.37,81.45l.11,142.93L267,208.5l-.13-156.12" style="fill:#fff"/><path d="M86.68,95.7a21.2,21.2,0,0,0-7.24,1.47A23.65,23.65,0,0,0,73,101a25.32,25.32,0,0,0-9.1,17.62A23.77,23.77,0,0,0,64,123.1a22.19,22.19,0,0,0,.95,4.29,21.61,21.61,0,0,0,1.78,4c.18.3.36.61.56.9s.38.59.59.87.41.56.63.83.44.53.67.79l7.23-7.8c-.09-.11-.19-.22-.28-.34l-.27-.36-.26-.37c-.08-.13-.16-.26-.23-.39a9.8,9.8,0,0,1-.86-1.93,10.59,10.59,0,0,1-.44-2.1,11.72,11.72,0,0,1,0-2.22,13.27,13.27,0,0,1,.39-2.28,13.75,13.75,0,0,1,1.8-4,14.54,14.54,0,0,1,2.88-3.22,13.45,13.45,0,0,1,3.6-2.14,11.21,11.21,0,0,1,4-.81h.49l.48,0,.48,0,.48.08a9.91,9.91,0,0,1,1.9.55,9,9,0,0,1,3.15,2.19,9.32,9.32,0,0,1,1.17,1.59,8.8,8.8,0,0,1,.61,1.23,9.59,9.59,0,0,1,.44,1.31,12.45,12.45,0,0,1,.26,1.38,11.06,11.06,0,0,1,.08,1.42l10.43.08a23.22,23.22,0,0,0-.16-3,22.11,22.11,0,0,0-.56-2.94,21.06,21.06,0,0,0-.94-2.81,20.72,20.72,0,0,0-3.84-6.08,18.86,18.86,0,0,0-6.69-4.69,19.8,19.8,0,0,0-4-1.16l-.93-.14-.94-.09c-.31,0-.62,0-.93-.05h-.94" style="fill:#07d7a7"/><path d="M95.87,116.61a12.89,12.89,0,0,1-1,4.67,14.58,14.58,0,0,1-2.55,4,14,14,0,0,1-3.69,2.91,11.86,11.86,0,0,1-4.41,1.36H84l-.22,0h-.45a10.29,10.29,0,0,1-1.94-.18,9,9,0,0,1-1.79-.54,8.67,8.67,0,0,1-3-2.12l-.2.21-7.23,7.8-.13.14a19.51,19.51,0,0,0,3,2.67,19.1,19.1,0,0,0,3.46,2,19.33,19.33,0,0,0,3.8,1.21,20,20,0,0,0,4,.41h.87l.45,0,.44,0a21.53,21.53,0,0,0,8.27-2.49,24.72,24.72,0,0,0,6.86-5.42,26.18,26.18,0,0,0,4.71-7.57,24.73,24.73,0,0,0,1.84-8.93h-.16l-10.43-.08h-.31" style="fill:#ffc300"/><path d="M165,88.88a26.48,26.48,0,0,0-8.33,10.19,25.89,25.89,0,0,0-2.33,8.87,23.14,23.14,0,0,0,.11,4.64,22.12,22.12,0,0,0,2.93,8.58,21.57,21.57,0,0,0,2.64,3.52,20.31,20.31,0,0,0,3.26,2.82,19.66,19.66,0,0,0,3.8,2.07,21.4,21.4,0,0,0,4.26,1.26l1,.16,1,.11,1,.07,1,0a23.15,23.15,0,0,0,2.35-.14,20.73,20.73,0,0,0,2.34-.38,21.66,21.66,0,0,0,2.33-.62c.77-.25,1.53-.54,2.29-.87l-4.4-10.46.06,0,.07,0,.07,0,.06,0,0-.07c-.43.19-.85.36-1.28.51s-.85.26-1.29.36a11.59,11.59,0,0,1-1.29.22,11.18,11.18,0,0,1-1.29.09h-.53l-.53,0-.53-.06-.52-.08a11.17,11.17,0,0,1-2-.58,9.78,9.78,0,0,1-1.81-1,9.2,9.2,0,0,1-1.54-1.31,9.06,9.06,0,0,1-1.24-1.64,10.39,10.39,0,0,1-.93-2,10.58,10.58,0,0,1-.47-2.18,11.75,11.75,0,0,1,0-2.3,13.18,13.18,0,0,1,.43-2.36,14.1,14.1,0,0,1,.82-2.25,14.44,14.44,0,0,1,2.7-4A14.73,14.73,0,0,1,171,98.37l-6.15-9.31,0,0,0,0,0,0,.05,0,0-.06" style="fill:#07d7a7"/><path d="M194.85,91.35l-8.4,7.77h0a9.62,9.62,0,0,1,1.41,2.17,10.45,10.45,0,0,1,.81,2.48,11.51,11.51,0,0,1,.18,2.7,13.46,13.46,0,0,1-.46,2.83,14.75,14.75,0,0,1-5.14,7.64,14.83,14.83,0,0,1-2.66,1.66l-.06,0-.07,0-.07,0-.06,0,4.4,10.46,0,.07a25.32,25.32,0,0,0,4.9-2.93,26.55,26.55,0,0,0,4.15-3.92,27.14,27.14,0,0,0,3.24-4.73,26.37,26.37,0,0,0,2.15-5.35,25,25,0,0,0,.88-5.7,23.39,23.39,0,0,0-.46-5.56,21.59,21.59,0,0,0-1.75-5.17,20.57,20.57,0,0,0-3-4.54" style="fill:#0abffc"/><path d="M178.49,84.27a23.08,23.08,0,0,0-3.52.36,23.51,23.51,0,0,0-3.46.91A23.86,23.86,0,0,0,168.17,87a25.67,25.67,0,0,0-3.18,2l-.05,0,0,0,0,0,0,0L171,98.37l0,0a14.6,14.6,0,0,1,1.79-1.1,13,13,0,0,1,1.89-.82,13.32,13.32,0,0,1,1.95-.51,11.83,11.83,0,0,1,2-.19,4.51,4.51,0,0,1,.52,0l.52,0,.52,0,.52.08a11.2,11.2,0,0,1,1.66.42,8.78,8.78,0,0,1,1.53.68,9.58,9.58,0,0,1,1.37.91,9.24,9.24,0,0,1,1.19,1.15h0l8.4-7.77h0a20,20,0,0,0-2.56-2.48,19.66,19.66,0,0,0-2.92-2,20.77,20.77,0,0,0-3.23-1.44,21.09,21.09,0,0,0-3.5-.88c-.34-.06-.69-.11-1-.15l-1.05-.1-1,0h-1" style="fill:#3a46dd"/><polyline points="139.57 93.87 112.56 97.18 112.84 100.22 139.85 96.94 139.57 93.87" style="fill:#e8e8e8"/><polyline points="139.63 173.19 112.63 175.64 112.9 178.68 139.91 176.27 139.63 173.19" style="fill:#e8e8e8"/><polyline points="139.57 99.97 112.57 103.21 112.85 106.25 139.85 103.05 139.57 99.97" style="fill:#e8e8e8"/><polyline points="139.63 179.29 112.63 181.67 112.91 184.71 139.92 182.37 139.63 179.29" style="fill:#e8e8e8"/><polyline points="139.57 105.57 112.57 108.75 112.85 111.78 139.86 108.63 139.57 105.57" style="fill:#e8e8e8"/><polyline points="128.43 185.84 112.64 187.2 112.91 190.25 128.71 188.92 128.43 185.84" style="fill:#e8e8e8"/><path d="M170.56,168.11h-.07l-6.07.55a.36.36,0,0,0-.2.06.61.61,0,0,0-.16.12.59.59,0,0,0-.1.17.48.48,0,0,0,0,.2v10.26a.65.65,0,0,1,0-.2.46.46,0,0,1,.11-.16.61.61,0,0,1,.16-.12.6.6,0,0,1,.19-.06l6.07-.53h.05l.17,0,.14.08a.41.41,0,0,1,.1.13.48.48,0,0,1,0,.17V168.58a.53.53,0,0,0,0-.18.38.38,0,0,0-.09-.15.45.45,0,0,0-.14-.1.58.58,0,0,0-.18,0" style="fill:#ffc500"/><path d="M182.26,153.59h0l-6.13.6a.66.66,0,0,0-.2.06.4.4,0,0,0-.16.13.39.39,0,0,0-.11.17.45.45,0,0,0,0,.2l0,32a.52.52,0,0,0,0,.18.46.46,0,0,0,.25.25.37.37,0,0,0,.18,0h.05l6.13-.51a.66.66,0,0,0,.2-.06.51.51,0,0,0,.16-.13.54.54,0,0,0,.15-.37.54.54,0,0,1-.15.37.51.51,0,0,1-.16.13.66.66,0,0,1-.2.06l-6.13.51h-.05a.37.37,0,0,1-.18,0,.46.46,0,0,1-.25-.25.52.52,0,0,1,0-.18l0-22.7a.52.52,0,0,1,0-.21.45.45,0,0,1,.11-.17.7.7,0,0,1,.16-.13.46.46,0,0,1,.2-.05l6.13-.58h.05a.57.57,0,0,1,.18,0,.71.71,0,0,1,.14.1.45.45,0,0,1,.1.14.39.39,0,0,1,0,.18v-9.29a.58.58,0,0,0,0-.19.65.65,0,0,0-.1-.15.38.38,0,0,0-.15-.09.34.34,0,0,0-.18,0" style="fill:#ffc500"/><path d="M192.56,163.5h-.05l-6.18.56a.66.66,0,0,0-.2.06.76.76,0,0,0-.17.13.54.54,0,0,0-.11.18.45.45,0,0,0,0,.2l0,21.24a.58.58,0,0,0,0,.19,1.3,1.3,0,0,0,.1.15.56.56,0,0,0,.15.1l.18,0h.05l6.19-.51a.66.66,0,0,0,.2-.06.48.48,0,0,0,.16-.12.42.42,0,0,0,.11-.18.46.46,0,0,0,0-.21.46.46,0,0,1,0,.21.42.42,0,0,1-.11.18.48.48,0,0,1-.16.12.66.66,0,0,1-.2.06l-6.19.51h-.05l-.18,0a.56.56,0,0,1-.15-.1,1.3,1.3,0,0,1-.1-.15.58.58,0,0,1,0-.19V173.45a.52.52,0,0,1,0-.21.62.62,0,0,1,.11-.17.61.61,0,0,1,.16-.12.36.36,0,0,1,.2-.06l6.19-.56h0a.39.39,0,0,1,.18,0,.42.42,0,0,1,.14.09.71.71,0,0,1,.1.14.47.47,0,0,1,0,.17V164a.58.58,0,0,0,0-.19.4.4,0,0,0-.1-.15.56.56,0,0,0-.15-.1l-.18,0" style="fill:#ffc500"/><path d="M170.55,178.4h-.05l-6.07.53a.6.6,0,0,0-.19.06.61.61,0,0,0-.16.12.46.46,0,0,0-.11.16.65.65,0,0,0,0,.2h0v8.21a.58.58,0,0,0,0,.19.4.4,0,0,0,.1.15.71.71,0,0,0,.14.1.58.58,0,0,0,.18,0h.05l6.07-.51a.46.46,0,0,0,.2,0l.16-.13a1,1,0,0,0,.11-.17.65.65,0,0,0,0-.2v-8.26h0v0h0a.48.48,0,0,0,0-.17.41.41,0,0,0-.1-.13l-.14-.08-.17,0" style="fill:#07d7a7"/><path d="M182.27,162.9h-.05l-6.13.58a.46.46,0,0,0-.2.05.7.7,0,0,0-.16.13.45.45,0,0,0-.11.17.52.52,0,0,0,0,.21l0,22.7a.52.52,0,0,0,0,.18.46.46,0,0,0,.25.25.37.37,0,0,0,.18,0h.05l6.13-.51a.66.66,0,0,0,.2-.06.51.51,0,0,0,.16-.13.54.54,0,0,0,.15-.37l0-22.76h0a.39.39,0,0,0,0-.18.45.45,0,0,0-.1-.14.71.71,0,0,0-.14-.1.57.57,0,0,0-.18,0" style="fill:#07d7a7"/><path d="M192.57,172.33h0l-6.19.56a.36.36,0,0,0-.2.06.61.61,0,0,0-.16.12.62.62,0,0,0-.11.17.52.52,0,0,0,0,.21v12.43a.58.58,0,0,0,0,.19,1.3,1.3,0,0,0,.1.15.56.56,0,0,0,.15.1l.18,0h.05l6.19-.51a.66.66,0,0,0,.2-.06.48.48,0,0,0,.16-.12.42.42,0,0,0,.11-.18.46.46,0,0,0,0-.21V172.8h0a.47.47,0,0,0,0-.17.71.71,0,0,0-.1-.14.42.42,0,0,0-.14-.09.39.39,0,0,0-.18,0" style="fill:#07d7a7"/><path d="M78.15,163.65h0l-5.64.54a.41.41,0,0,0-.18.05,1.58,1.58,0,0,0-.15.12,1,1,0,0,0-.1.17.63.63,0,0,0,0,.19v10.39a.58.58,0,0,1,0-.19,1,1,0,0,1,.1-.17.57.57,0,0,1,.15-.12l.18-.06,5.63-.52h0a.45.45,0,0,1,.16,0,.38.38,0,0,1,.13.09.3.3,0,0,1,.09.13.38.38,0,0,1,0,.16V164.11a.48.48,0,0,0,0-.18.38.38,0,0,0-.09-.15.34.34,0,0,0-.14-.09l-.17,0" style="fill:#3a46dd"/><path d="M89,162.6h0l-5.68.55a.6.6,0,0,0-.19.06.57.57,0,0,0-.15.12.59.59,0,0,0-.1.17.65.65,0,0,0,0,.2l0,22.81a.45.45,0,0,1,0-.19.49.49,0,0,1,.1-.15.48.48,0,0,1,.15-.11.41.41,0,0,1,.18-.05l5.68-.5h0a.42.42,0,0,1,.16,0,.36.36,0,0,1,.14.1.42.42,0,0,1,.09.14.52.52,0,0,1,0,.18v8l0-30.88a.34.34,0,0,0,0-.18.38.38,0,0,0-.09-.15.3.3,0,0,0-.13-.09.47.47,0,0,0-.17,0" style="fill:#3a46dd"/><path d="M98.58,172.18h0l-5.73.53a.6.6,0,0,0-.19.06.44.44,0,0,0-.15.12.48.48,0,0,0-.1.17.41.41,0,0,0,0,.19V193.7a.53.53,0,0,0,0,.18.38.38,0,0,0,.09.15.5.5,0,0,0,.14.1l.16,0h0l5.74-.48a.47.47,0,0,0,.33-.17.62.62,0,0,0,.11-.17.64.64,0,0,0,0-.2.64.64,0,0,1,0,.2.62.62,0,0,1-.11.17.47.47,0,0,1-.33.17l-5.74.48h0l-.16,0a.5.5,0,0,1-.14-.1.38.38,0,0,1-.09-.15.53.53,0,0,1,0-.18v-12a.71.71,0,0,1,0-.21.46.46,0,0,1,.11-.16.47.47,0,0,1,.15-.13.37.37,0,0,1,.18-.05l5.74-.51h0a.33.33,0,0,1,.17,0,.38.38,0,0,1,.13.09.3.3,0,0,1,.09.13.33.33,0,0,1,0,.17v-8.47a.48.48,0,0,0,0-.18.38.38,0,0,0-.09-.15.5.5,0,0,0-.14-.1.41.41,0,0,0-.16,0" style="fill:#3a46dd"/><path d="M78.16,174.06h0l-5.63.52-.18.06a.57.57,0,0,0-.15.12,1,1,0,0,0-.1.17.58.58,0,0,0,0,.19h0l0,20.28a.57.57,0,0,0,0,.18.67.67,0,0,0,.09.14.71.71,0,0,0,.14.1.41.41,0,0,0,.16,0h0l5.63-.46a.55.55,0,0,0,.18-.06.44.44,0,0,0,.15-.12.54.54,0,0,0,.1-.16.48.48,0,0,0,0-.2V174.5h0a.38.38,0,0,0,0-.16.3.3,0,0,0-.09-.13.38.38,0,0,0-.13-.09.45.45,0,0,0-.16,0" style="fill:#07d7a7"/><path d="M89.05,185.51h0l-5.68.5a.41.41,0,0,0-.18.05.48.48,0,0,0-.15.11.49.49,0,0,0-.1.15.45.45,0,0,0,0,.19h0v7.94a.48.48,0,0,0,0,.18.38.38,0,0,0,.09.15.3.3,0,0,0,.13.09.33.33,0,0,0,.17,0h.06l5.68-.47a.55.55,0,0,0,.18-.06.44.44,0,0,0,.15-.12.34.34,0,0,0,.1-.16.45.45,0,0,0,0-.2v-8a.52.52,0,0,0,0-.18.42.42,0,0,0-.09-.14.36.36,0,0,0-.14-.1.42.42,0,0,0-.16,0" style="fill:#07d7a7"/><path d="M98.58,180.68h0l-5.74.51a.37.37,0,0,0-.18.05.47.47,0,0,0-.15.13.46.46,0,0,0-.11.16.71.71,0,0,0,0,.21v12a.53.53,0,0,0,0,.18.38.38,0,0,0,.09.15.5.5,0,0,0,.14.1l.16,0h0l5.74-.48a.47.47,0,0,0,.33-.17.62.62,0,0,0,.11-.17.64.64,0,0,0,0-.2v-12h0a.33.33,0,0,0,0-.17.3.3,0,0,0-.09-.13.38.38,0,0,0-.13-.09.33.33,0,0,0-.17,0" style="fill:#07d7a7"/><polyline points="235.81 165.03 206.67 167.66 206.98 170.81 236.12 168.23 235.81 165.03" style="fill:#e8e8e8"/><polyline points="244.53 170.6 206.68 173.93 206.98 177.09 244.84 173.82 244.53 170.6" style="fill:#e8e8e8"/><polyline points="228.5 177.81 206.68 179.67 206.99 182.83 228.8 181 228.5 177.81" style="fill:#e8e8e8"/></g></g><polygon points="204.88 190.71 204.88 255.82 251.77 257.48 256.32 190.79 204.88 190.71" style="fill:#f4f4f4;mix-blend-mode:multiply"/><polygon points="200.33 187.9 200.33 253.01 251.77 257.48 251.77 187.99 200.33 187.9" style="fill:#fff"/><polyline points="231.13 197.63 209.14 197.32 209.14 203.31 231.13 203.79 231.13 197.63" style="fill:#e9edfb"/><polyline points="233.02 206.47 209.14 205.88 209.14 211.87 233.02 212.65 233.02 206.47" style="fill:#e9edfb"/><polyline points="218.46 217.37 209.14 217 209.14 222.99 218.46 223.42 218.46 217.37" style="fill:#07d7a7"/><polyline points="229.25 217.79 218.46 217.37 218.46 223.42 229.25 223.93 229.25 217.79" style="fill:#ffdb66"/><polyline points="243.9 228.2 233.97 227.69 233.97 233.87 243.9 234.45 243.9 228.2" style="fill:#ffdb66"/><polyline points="233.97 227.69 209.14 226.41 209.14 232.4 233.97 233.87 233.97 227.69" style="fill:#07d7a7"/><polyline points="222.43 236.66 209.14 235.82 209.14 241.81 222.43 242.75 222.43 236.66" style="fill:#07d7a7"/><polyline points="231.76 237.26 222.43 236.66 222.43 242.75 231.76 243.42 231.76 237.26" style="fill:#ffdb66"/><polygon points="308.24 144.87 209.53 153.4 208.06 53.3 306.77 44.77 308.24 144.87" style="fill:#f4f4f4;opacity:0.39;mix-blend-mode:multiply"/><g style="isolation:isolate"><g style="clip-path:url(#g)"><path d="M244.56,61.23a38.68,38.68,0,0,1,4-2.63,36.28,36.28,0,0,1,4.3-2.09,35.77,35.77,0,0,1,4.56-1.5,34.51,34.51,0,0,1,4.79-.85l.76-.07.75-.06.76,0,.75,0a31.06,31.06,0,0,1,11.68,2,31.74,31.74,0,0,1,5.32,2.64A33,33,0,0,1,287,62.33l.52.49.5.5.5.51.48.52.11.06h0a33.7,33.7,0,0,1,3.72,5,34.32,34.32,0,0,1,2.75,5.65,36.16,36.16,0,0,1,1.72,6.18,38.42,38.42,0,0,1,.65,6.58,40,40,0,0,1-2.6,14.79,41.15,41.15,0,0,1-7.45,12.49A38.87,38.87,0,0,1,276.8,124a34.71,34.71,0,0,1-13.54,4l-.45,0-.44,0-.44,0h-.45l-.1,0h-1.13a32.33,32.33,0,0,1-5.93-.64,30.76,30.76,0,0,1-5.6-1.72,30.19,30.19,0,0,1-5.18-2.74,32.21,32.21,0,0,1-4.65-3.73l-.2-.2-.21-.2-.2-.21-.2-.2-.1-.09-.09-.09-.07-.08-.07-.09h0a32.44,32.44,0,0,1-3.76-4.83,34.58,34.58,0,0,1-2.82-5.44,35,35,0,0,1-1.84-5.94,39,39,0,0,1-.84-6.35v-.08h0c0-.1,0-.21,0-.31s0-.21,0-.32,0-.21,0-.31v-.32a40.44,40.44,0,0,1,.43-6.44,41,41,0,0,1,1.43-6.17,41,41,0,0,1,5.47-11.16h0c.6-.87,1.24-1.71,1.9-2.52s1.37-1.61,2.1-2.37,1.48-1.49,2.26-2.18,1.59-1.37,2.42-2h0v-.06l0,0M310,35.69,215.79,46.13l1.36,98.23,94.34-6.64L310,35.69" style="fill:#fff"/><path d="M251.76,123q.31.72.66,1.35a10.11,10.11,0,0,0,.76,1.16,8.89,8.89,0,0,0,.86,1,7.54,7.54,0,0,0,1,.75q.65.12,1.29.21c.43.06.87.11,1.3.15s.88.08,1.32.1.89,0,1.33,0h1.27a3.32,3.32,0,0,0,.93-.32,5.25,5.25,0,0,0,1-.65,10.14,10.14,0,0,0,1-1,14.53,14.53,0,0,0,1-1.29H265c-1.06,0-2.1-.06-3.12-.13s-2-.15-2.92-.24-1.81-.21-2.64-.33-1.6-.24-2.3-.36l-.57-.1-.56-.1-.56-.11-.56-.11m25,.12c-.88.25-1.79.46-2.7.64s-1.84.31-2.77.42-1.86.18-2.79.23-1.85.07-2.76.07c-.28.41-.56.78-.84,1.12a10.53,10.53,0,0,1-.83.9,7.22,7.22,0,0,1-.81.7,5.39,5.39,0,0,1-.8.49h.39l.19,0h.19c.77-.06,1.53-.14,2.29-.25s1.51-.25,2.25-.41,1.48-.35,2.21-.56,1.45-.44,2.16-.69v0c.4-.19.81-.39,1.21-.6l1.17-.63,1.14-.66q.57-.33,1.11-.69m2.28-.76-.34.13-.34.12-.34.12-.35.12-.75.49-.77.49-.79.47-.8.45c.39-.17.77-.35,1.15-.54s.76-.38,1.13-.58.74-.4,1.11-.61.73-.43,1.09-.66m-40-3.35a31.59,31.59,0,0,0,3.41,2.85,28,28,0,0,0,3.71,2.31,30.54,30.54,0,0,0,4,1.76,31.57,31.57,0,0,0,4.21,1.17,8.15,8.15,0,0,1-.88-.79,9.56,9.56,0,0,1-.78-1,8.94,8.94,0,0,1-.69-1.13,12.87,12.87,0,0,1-.61-1.29c-1.35-.28-2.67-.59-3.9-.92s-2.4-.67-3.47-1-2-.69-2.86-1a22.15,22.15,0,0,1-2.11-1m11-3.74c0,.74.13,1.45.23,2.13s.2,1.34.33,2,.27,1.21.43,1.77.35,1.09.54,1.58l.59.12.6.11.6.11.62.11c.7.12,1.46.25,2.29.37s1.71.23,2.64.32,1.91.19,2.92.25,2.05.11,3.11.12h.59l.42-.64q.21-.33.42-.69l.42-.74c.15-.26.29-.52.43-.79s.32-.63.47-1,.32-.65.47-1,.31-.68.46-1l.44-1.08h-.32c-1.18,0-2.33,0-3.44-.11s-2.17-.13-3.17-.21-1.93-.17-2.79-.27-1.62-.19-2.29-.28l-1.78-.25-1.77-.28-1.74-.31c-.58-.1-1.16-.21-1.72-.33m35.74-.4A28.19,28.19,0,0,1,282,116.1a38.65,38.65,0,0,1-4.13.75c-1.4.19-2.83.32-4.26.4s-2.83.11-4.21.1c-.15.38-.31.75-.46,1.11s-.31.72-.47,1.07-.32.69-.48,1-.32.66-.49,1-.27.51-.4.75-.27.48-.4.7-.26.45-.4.66-.26.42-.39.62c1,0,1.94,0,2.92-.09s2-.15,3-.27,2-.29,2.92-.5a27.4,27.4,0,0,0,2.83-.75c.81-.55,1.6-1.13,2.35-1.73s1.48-1.22,2.18-1.86,1.35-1.32,2-2,1.23-1.4,1.8-2.14m3.23-1.6-.65.38-.67.37-.7.34-.72.31c-.54.72-1.11,1.42-1.71,2.09s-1.22,1.34-1.88,2-1.34,1.26-2.06,1.85-1.45,1.16-2.22,1.71l.4-.15.4-.15.39-.17.39-.17,0,0c.85-.57,1.67-1.17,2.48-1.81s1.58-1.32,2.33-2,1.48-1.44,2.18-2.21,1.38-1.56,2-2.38m-57-4.18c.38.81.78,1.6,1.22,2.37s.9,1.52,1.39,2.25,1,1.45,1.57,2.14,1.13,1.36,1.73,2h0l.06.06.06.06.06.06.06.07a8,8,0,0,0,1.64,1,29.2,29.2,0,0,0,2.84,1.16c1.14.41,2.44.82,3.88,1.22s3,.79,4.75,1.14c-.19-.49-.36-1-.52-1.57s-.3-1.15-.42-1.77-.23-1.26-.32-1.94-.16-1.39-.22-2.13c-2-.41-4-.87-5.85-1.36s-3.57-1-5.12-1.53a41.8,41.8,0,0,1-4.08-1.62,14.89,14.89,0,0,1-2.75-1.62m18.26-4.65c-.06.71-.12,1.41-.17,2.1s-.09,1.38-.11,2-.05,1.34-.06,2,0,1.29,0,1.91c0,.22,0,.44,0,.65s0,.43,0,.64l0,.63c0,.2,0,.41.05.61l1.69.32,1.74.31,1.79.28,1.83.26c.68.09,1.45.19,2.3.28l2.78.27c1,.08,2.06.15,3.17.21s2.26.09,3.44.1h.41c.31-.77.61-1.58.9-2.41s.58-1.69.85-2.57.54-1.77.79-2.69.5-1.85.73-2.79h-.6c-1.79,0-3.62-.07-5.45-.17s-3.67-.25-5.5-.44-3.65-.41-5.43-.66-3.53-.55-5.23-.86m41.23-.78a27.4,27.4,0,0,1-3.9,1.32,43,43,0,0,1-4.52.9c-1.59.23-3.26.41-5,.52s-3.51.17-5.34.18q-.34,1.41-.72,2.79c-.25.91-.51,1.81-.79,2.69s-.55,1.73-.84,2.56-.6,1.64-.91,2.43c1.41,0,2.85,0,4.3-.12s2.9-.22,4.33-.42a40.1,40.1,0,0,0,4.18-.8,26.7,26.7,0,0,0,3.85-1.26c.61-.8,1.17-1.64,1.7-2.49s1-1.74,1.46-2.64a29.81,29.81,0,0,0,1.22-2.77c.37-.94.7-1.9,1-2.89m4.09-2.54a9,9,0,0,1-.81.67,10.24,10.24,0,0,1-.9.63q-.46.3-1,.57c-.34.19-.7.36-1.07.53-.28,1-.59,1.93-1,2.87s-.75,1.85-1.18,2.75-.91,1.77-1.42,2.62-1.05,1.68-1.64,2.48l.73-.34c.24-.12.48-.24.71-.37l.68-.39c.22-.14.44-.28.65-.43l0,.06c.65-.87,1.28-1.77,1.87-2.7s1.14-1.87,1.65-2.84,1-2,1.44-3,.83-2,1.19-3.11m-66.83-5c.07,1.11.18,2.2.35,3.27s.36,2.14.62,3.18.54,2.06.88,3.07.72,2,1.15,2.94h0a10.18,10.18,0,0,0,2.35,1.56,36.05,36.05,0,0,0,4,1.68c1.56.57,3.34,1.13,5.3,1.67s4.13,1.06,6.43,1.52l0-.6c0-.2,0-.41,0-.61s0-.42,0-.63,0-.42,0-.63c0-.62,0-1.26,0-1.9s0-1.32.06-2,.06-1.37.11-2.07.11-1.42.17-2.14l-2.31-.46-2.23-.49-2.13-.52-2-.55q-2.59-.73-4.7-1.51A35.29,35.29,0,0,1,233,99.33a16.52,16.52,0,0,1-2.63-1.61,5.83,5.83,0,0,1-1.53-1.61m23.54-4.66c-.23,1.09-.45,2.18-.65,3.26s-.38,2.17-.55,3.23-.32,2.13-.45,3.18-.25,2.08-.35,3.1q2.59.48,5.27.87c1.78.25,3.58.47,5.38.65s3.6.32,5.38.42,3.54.16,5.26.17h1c.25-1,.48-2.11.71-3.18s.42-2.15.61-3.24.37-2.19.52-3.3.3-2.2.42-3.31h0c-1.77,0-3.6,0-5.47-.12s-3.76-.2-5.67-.36-3.82-.35-5.72-.58-3.78-.5-5.62-.8m40.58-.4a24.81,24.81,0,0,1-2.79.84c-1,.24-2,.44-3.07.6s-2.12.31-3.19.41-2.11.19-3.12.25l-1.36.07-1.4,0-1.42,0H275.1c-.12,1.1-.26,2.21-.42,3.31s-.33,2.2-.52,3.3-.39,2.17-.61,3.24-.46,2.13-.71,3.17c2,0,3.9-.07,5.69-.21s3.49-.32,5.07-.57a40.65,40.65,0,0,0,4.39-.93,24.88,24.88,0,0,0,3.64-1.28c.27-1,.5-1.93.68-2.92s.34-2,.45-3,.17-2.07.2-3.13,0-2.13,0-3.21m4.79-3.6a4.63,4.63,0,0,1-.71,1.07,6.15,6.15,0,0,1-1,.94,8.87,8.87,0,0,1-1.29.8,14,14,0,0,1-1.51.69c.05,1.08.07,2.15.05,3.2s-.09,2.09-.19,3.11-.24,2-.42,3-.41,2-.66,2.92c.38-.17.74-.36,1.09-.55s.68-.39,1-.6.6-.42.88-.64a7.08,7.08,0,0,0,.76-.68l.07.07c.33-1,.62-2.06.88-3.12s.46-2.12.63-3.2.29-2.18.36-3.28.11-2.22.1-3.34v-.41m-67.52-4.6c-.25.9-.47,1.82-.66,2.74s-.35,1.86-.47,2.8-.22,1.89-.28,2.85-.07,1.92-.06,2.89v.33c0,.12,0,.23,0,.34s0,.22,0,.33,0,.22,0,.34A4.26,4.26,0,0,0,230,97.15a14.1,14.1,0,0,0,2.6,1.71,32.27,32.27,0,0,0,3.82,1.68c1.47.56,3.13,1.09,5,1.61.67.19,1.36.38,2.06.56l2.14.52,2.2.49,2.26.45c.09-1,.21-2,.34-3.06s.28-2.09.44-3.16.35-2.15.55-3.24.41-2.2.64-3.31h-.23c-3.23-.53-6.14-1.14-8.71-1.78a57.52,57.52,0,0,1-6.63-2.07,19.78,19.78,0,0,1-4.36-2.27,4.68,4.68,0,0,1-1.93-2.39m25.25-3.61c-.29,1-.57,1.94-.85,2.93s-.54,2-.79,3-.5,2-.74,3-.46,2-.67,3c1.85.3,3.73.57,5.61.8s3.78.43,5.67.59,3.76.28,5.61.36,3.67.13,5.44.13h.15c0-.37.08-.73.11-1.1s.07-.73.1-1.09l.09-1.09c0-.37,0-.73.07-1.09,0-.71.08-1.4.11-2.1s0-1.37.05-2,0-1.36,0-2,0-1.33,0-2h-1.58c-.78,0-1.57,0-2.37,0L269,80.48l-2.5-.13c-.84,0-1.69-.1-2.55-.17L261.71,80l-2.16-.22-2.09-.25-2-.28m35-.75a26.41,26.41,0,0,1-2.9.81c-1.07.24-2.23.44-3.49.62s-2.59.31-4,.41-2.89.17-4.43.21c0,.65,0,1.32,0,2s0,1.34,0,2,0,1.37,0,2.07-.07,1.39-.11,2.1c0,.36-.05.72-.07,1.08l-.09,1.09c0,.36-.06.72-.1,1.09s-.07.73-.11,1.09c1.81,0,3.57,0,5.25-.15s3.29-.24,4.8-.43,2.93-.43,4.22-.71a24.94,24.94,0,0,0,3.51-1l0-.48c0-.16,0-.32,0-.49s0-.32,0-.48,0-.33-.05-.49c-.09-.87-.21-1.75-.35-2.62s-.31-1.73-.5-2.6-.41-1.72-.65-2.57-.51-1.7-.8-2.53m4.66-3.93a3,3,0,0,1-.3.91,4,4,0,0,1-.61.85,5.87,5.87,0,0,1-.9.78,9.5,9.5,0,0,1-1.2.7l-.33.16-.34.15-.36.14-.37.15c.29.84.55,1.69.8,2.55s.46,1.72.65,2.58.36,1.75.5,2.62.26,1.75.36,2.63c0,.16,0,.32,0,.47s0,.32,0,.47,0,.31,0,.47l0,.47c.58-.24,1.12-.49,1.61-.75a9.32,9.32,0,0,0,1.29-.86,5.85,5.85,0,0,0,1-1A3.81,3.81,0,0,0,297.6,87l.09,0c0-1.1-.13-2.19-.26-3.27s-.3-2.13-.52-3.17a31.54,31.54,0,0,0-.78-3.08c-.3-1-.65-2-1-3m-59.32-3.72c-.6.87-1.16,1.76-1.69,2.68s-1,1.86-1.47,2.82-.88,1.94-1.26,2.94-.73,2-1,3h0a3.46,3.46,0,0,0,1.53,2.42,17.25,17.25,0,0,0,4.28,2.34,51.65,51.65,0,0,0,6.73,2.16c2.63.68,5.63,1.3,8.94,1.85H252l.06,0h.07c.2-1,.42-2,.65-3s.48-2,.73-3,.52-2,.8-3,.57-2,.87-3c-2-.3-4-.66-5.77-1s-3.44-.82-4.93-1.28a32.88,32.88,0,0,1-3.94-1.48,14.2,14.2,0,0,1-2.82-1.62,8.38,8.38,0,0,1-.81-.71,5.23,5.23,0,0,1-.58-.72,3.2,3.2,0,0,1-.37-.74,2.5,2.5,0,0,1-.15-.75m23.35-2.2c-.32.79-.64,1.6-.95,2.44s-.62,1.68-.93,2.54-.6,1.75-.89,2.64-.57,1.81-.85,2.72l2,.28,2.08.25,2.14.22,2.2.19c.86.07,1.71.12,2.55.17l2.5.12c.83,0,1.64.06,2.44.07l2.37,0h1.55q0-1.43-.15-2.79c-.07-.92-.15-1.82-.25-2.71s-.22-1.75-.35-2.6-.28-1.69-.45-2.51l-.43,0H272.4c-1.1,0-2.22,0-3.34-.06s-2.25-.11-3.37-.2-2.24-.21-3.33-.35-2.18-.3-3.23-.47m26-.93a18.42,18.42,0,0,1-2.6.86,28.15,28.15,0,0,1-2.76.58c-.92.15-1.83.26-2.69.34s-1.67.13-2.39.16h-.24c.16.82.31,1.66.44,2.51s.25,1.72.35,2.61.18,1.78.25,2.7.12,1.85.15,2.79c1.54,0,3-.1,4.42-.2s2.73-.25,4-.42,2.4-.37,3.47-.61a24.59,24.59,0,0,0,2.88-.8c-.33-.94-.69-1.86-1.07-2.78s-.8-1.8-1.24-2.69-.9-1.74-1.4-2.59-1-1.67-1.55-2.47m3.88-3a5.07,5.07,0,0,1-.65.89,7,7,0,0,1-.85.77,8.29,8.29,0,0,1-1,.67,10.86,10.86,0,0,1-1.13.58c.54.8,1.06,1.63,1.55,2.48s1,1.72,1.4,2.6.85,1.78,1.23,2.69.74,1.84,1.07,2.78L291,78l.35-.15.34-.14.31-.16a9.29,9.29,0,0,0,1.23-.72,5,5,0,0,0,.89-.8,3.25,3.25,0,0,0,.56-.86,2.42,2.42,0,0,0,.21-.92H295c-.37-.88-.77-1.75-1.2-2.59s-.9-1.66-1.4-2.46-1-1.58-1.6-2.33-1.17-1.48-1.8-2.19m-44.63-3c-.8.61-1.57,1.26-2.32,1.93s-1.47,1.38-2.16,2.11-1.37,1.5-2,2.28-1.25,1.6-1.83,2.43a2.64,2.64,0,0,0,.06.79,2.8,2.8,0,0,0,.32.77,4.4,4.4,0,0,0,.59.77,6.34,6.34,0,0,0,.84.75,14.29,14.29,0,0,0,2.8,1.61,32.82,32.82,0,0,0,3.93,1.46c1.48.46,3.12.89,4.91,1.27s3.71.74,5.75,1l.07-.23.07-.23.07-.23a2,2,0,0,1,.07-.23q.41-1.29.81-2.52c.27-.82.55-1.63.83-2.41s.56-1.56.85-2.31.57-1.48.86-2.19c-1.79-.31-3.49-.67-5.06-1.07a41,41,0,0,1-4.26-1.32,18.17,18.17,0,0,1-3.17-1.5,5.34,5.34,0,0,1-1.77-1.62,3.4,3.4,0,0,1-.16-.34,1.62,1.62,0,0,1-.1-.34,2,2,0,0,1,0-.34,1.27,1.27,0,0,1,0-.34m23.78-7.17a26,26,0,0,1,2,3.08,31.94,31.94,0,0,1,1.72,3.52,39.62,39.62,0,0,1,1.4,3.94c.42,1.37.78,2.81,1.09,4.31h.29c1.08,0,2.1-.13,3.08-.23s1.89-.24,2.75-.4,1.67-.35,2.42-.56a16.33,16.33,0,0,0,2.05-.72l-.16-.23-.16-.23-.16-.23-.16-.22a38.07,38.07,0,0,0-3.63-4.34,33,33,0,0,0-4-3.5,27.53,27.53,0,0,0-4.21-2.58,22,22,0,0,0-4.37-1.6m-.35,0a11.69,11.69,0,0,0-2.13,2.07,27.19,27.19,0,0,0-2.16,3.1c-.73,1.19-1.45,2.53-2.16,4s-1.42,3-2.1,4.72c1,.17,2.11.33,3.19.46s2.19.25,3.3.34,2.23.16,3.34.2,2.22.06,3.32,0h1.29l.43,0c-.31-1.51-.68-3-1.1-4.34a39.85,39.85,0,0,0-1.43-3.95,29.55,29.55,0,0,0-1.74-3.52,25.35,25.35,0,0,0-2.05-3.08m.64-.17A22,22,0,0,1,272.76,56a27.12,27.12,0,0,1,4.2,2.6,32.6,32.6,0,0,1,4,3.49,39.87,39.87,0,0,1,3.61,4.32l.17.24a2.2,2.2,0,0,1,.17.25l.17.24a2.2,2.2,0,0,1,.17.25,13.42,13.42,0,0,0,1.2-.62,7.6,7.6,0,0,0,1-.68,6.48,6.48,0,0,0,.8-.76,5.12,5.12,0,0,0,.6-.83c-.16-.17-.31-.34-.47-.5l-.48-.5-.49-.48-.5-.48a32.15,32.15,0,0,0-4.11-3.22,30.64,30.64,0,0,0-9.29-4.11,31.2,31.2,0,0,0-5-.85m-.63-.05,0,0v0h0m-2.58-.06-.74,0-.75,0-.75.06-.74.07a33.07,33.07,0,0,0-4.77.85,33.81,33.81,0,0,0-4.53,1.49,35.08,35.08,0,0,0-4.27,2.08,37.2,37.2,0,0,0-4,2.61,1.92,1.92,0,0,0-.11.37,1.53,1.53,0,0,0,0,.37,1.75,1.75,0,0,0,.26.75,5,5,0,0,0,1.74,1.59A18.19,18.19,0,0,0,249.7,66a40.5,40.5,0,0,0,4.23,1.3c1.56.39,3.25.74,5,1q1.1-2.66,2.2-4.91c.74-1.5,1.48-2.86,2.22-4a26,26,0,0,1,2.18-3.08,11.74,11.74,0,0,1,2.1-2l-.61,0-.61,0h-.61c-.2,0-.41,0-.61,0" style="fill:#fff"/><path d="M238.08,118.4l.2.2.2.21.21.2.2.2a32.21,32.21,0,0,0,4.65,3.73,30.19,30.19,0,0,0,5.18,2.74,30.76,30.76,0,0,0,5.6,1.72,32.33,32.33,0,0,0,5.93.64h.56l0-.26.24,0h.33l.11,0h-1.27c-.44,0-.89,0-1.33,0s-.88-.06-1.32-.1-.87-.09-1.3-.15-.86-.13-1.29-.21h.05l-.13.22-.14-.09-.13-.09-.13-.09-.13-.1a31.57,31.57,0,0,1-4.21-1.17,30.54,30.54,0,0,1-4-1.76,28,28,0,0,1-3.71-2.31,31.59,31.59,0,0,1-3.41-2.85l-.3-.17-.27-.17c-.09,0-.16-.11-.24-.16l-.2-.15m-.11-.48.05,0,0,.07.06.06.08.07-.06-.07-.06-.06L238,118l-.06-.06M228.5,95.49a39,39,0,0,0,.84,6.35,35,35,0,0,0,1.84,5.94,34.58,34.58,0,0,0,2.82,5.44,32.44,32.44,0,0,0,3.76,4.83l.19-.15c-.6-.65-1.18-1.32-1.73-2s-1.08-1.4-1.57-2.14-1-1.48-1.39-2.25-.84-1.56-1.22-2.37l-.11-.09-.11-.09a.94.94,0,0,1-.1-.1l-.1-.09.17-.19c-.43-1-.81-1.94-1.15-2.94s-.63-2-.88-3.07-.46-2.1-.62-3.18-.28-2.16-.35-3.27a1.19,1.19,0,0,1-.09-.15c0-.06-.06-.11-.08-.16l-.06-.15-.06-.16m7.29-25.12a41,41,0,0,0-5.47,11.16,41,41,0,0,0-1.43,6.17,40.44,40.44,0,0,0-.43,6.44v.32c0,.1,0,.21,0,.31s0,.21,0,.32,0,.21,0,.31l.21-.06v.13c0-.12,0-.23,0-.34s0-.22,0-.33,0-.22,0-.34v-.33c0-1,0-1.93.06-2.89s.15-1.91.28-2.85.28-1.88.47-2.8.41-1.84.66-2.74l0-.12s0-.09,0-.13,0-.09,0-.13v-.12l.22,0c.3-1,.65-2,1-3s.8-2,1.26-2.94.95-1.9,1.47-2.82,1.09-1.81,1.69-2.68a.49.49,0,0,1,0-.12v-.11s0-.08,0-.12,0-.08,0-.12m53.33-5.93,0,.07,0,.06,0,.06,0,.06c.63.71,1.23,1.43,1.8,2.19s1.1,1.53,1.6,2.33,1,1.62,1.4,2.46.83,1.71,1.2,2.59h.15s0,0,0,.08v.07a.22.22,0,0,0,0,.08.15.15,0,0,0,0,.07c.38,1,.73,2,1,3a31.54,31.54,0,0,1,.78,3.08c.22,1,.39,2.1.52,3.17s.22,2.17.26,3.27l.16.06a.36.36,0,0,1,0,.09l0,.09a.36.36,0,0,0,0,.09l0,.09v.41c0,1.12,0,2.24-.1,3.34s-.2,2.19-.36,3.28-.38,2.15-.63,3.2-.55,2.1-.88,3.12l.12.13-.06.06-.06.05-.06.06-.06.06c-.36,1.06-.76,2.1-1.19,3.11s-.92,2-1.44,3-1.06,1.92-1.65,2.84-1.22,1.83-1.87,2.7l.11.17-.13.09-.12.08-.13.08-.12.08c-.64.82-1.31,1.61-2,2.38s-1.42,1.5-2.18,2.21-1.53,1.38-2.33,2-1.63,1.24-2.48,1.81l.08.21-.27.12-.28.12-.28.11-.28.11c-.36.23-.72.45-1.09.66s-.74.42-1.11.61-.75.4-1.13.58-.76.37-1.15.54l-.57.31-.57.3-.59.3-.59.29-.1-.22c-.71.25-1.43.49-2.16.69s-1.47.4-2.21.56-1.49.3-2.25.41-1.52.19-2.29.25H263l-.19,0h-.39l-.25.11-.24.08-.24.07-.25,0h.45l.44,0,.44,0,.45,0a34.71,34.71,0,0,0,13.54-4,38.87,38.87,0,0,0,11.11-8.86,41.15,41.15,0,0,0,7.45-12.49A40,40,0,0,0,298,87.86a38.42,38.42,0,0,0-.65-6.58,36.16,36.16,0,0,0-1.72-6.18,34.32,34.32,0,0,0-2.75-5.65,33.7,33.7,0,0,0-3.72-5m-44.63-3.16c-.83.63-1.64,1.3-2.42,2s-1.54,1.42-2.26,2.18-1.43,1.55-2.1,2.37-1.3,1.65-1.9,2.52l.23,0v.08q.87-1.25,1.83-2.43t2-2.28c.69-.73,1.41-1.43,2.16-2.11s1.52-1.32,2.32-1.93a.36.36,0,0,1,0-.11.49.49,0,0,1,0-.11.49.49,0,0,1,0-.11s0-.07,0-.11M265.22,54l-.75,0-.76,0-.75.06-.76.07a34.51,34.51,0,0,0-4.79.85,35.77,35.77,0,0,0-4.56,1.5,36.28,36.28,0,0,0-4.3,2.09,38.68,38.68,0,0,0-4,2.63l.19.11,0,0v.05l0,0a37.2,37.2,0,0,1,4-2.61,35.08,35.08,0,0,1,4.27-2.08,33.81,33.81,0,0,1,4.53-1.49,33.07,33.07,0,0,1,4.77-.85l.74-.07.75-.06.75,0,.74,0c.2,0,.41,0,.61,0h.61l.61,0,.61,0,0,0,0,0,0,0h0l.05.07h0l0-.1.15,0,.14,0,.15,0,.14,0a31.2,31.2,0,0,1,5,.85,30.64,30.64,0,0,1,9.29,4.11,32.15,32.15,0,0,1,4.11,3.22l.5.48.49.48.48.5c.16.16.31.33.47.5l0,0,0,0,0,0,0-.06.12.07-.48-.52-.5-.51-.5-.5-.52-.49a33,33,0,0,0-4.81-3.68A31.74,31.74,0,0,0,276.9,56a31.06,31.06,0,0,0-11.68-2" style="fill:#09bffc"/><path d="M251.43,123a12.87,12.87,0,0,0,.61,1.29,8.94,8.94,0,0,0,.69,1.13,9.56,9.56,0,0,0,.78,1,8.15,8.15,0,0,0,.88.79l.13.1.13.09.13.09.14.09.13-.22H255a7.54,7.54,0,0,1-1-.75,8.89,8.89,0,0,1-.86-1,10.11,10.11,0,0,1-.76-1.16q-.34-.63-.66-1.35l-.08,0-.08,0h-.08l-.09,0m-1.59-7.71c.06.74.13,1.45.22,2.13s.2,1.33.32,1.94.26,1.21.42,1.77.33,1.08.52,1.57l.08,0,.08,0h.08l.08,0c-.19-.49-.37-1-.54-1.58s-.3-1.15-.43-1.77-.24-1.27-.33-2-.18-1.39-.23-2.13H250l-.06,0h-.07m.2-10.83c-.06.72-.12,1.44-.17,2.14s-.08,1.39-.11,2.07,0,1.34-.06,2,0,1.28,0,1.9c0,.21,0,.42,0,.63s0,.42,0,.63,0,.41,0,.61l0,.6h.07l.06,0h.14c0-.2,0-.41-.05-.61l0-.63c0-.21,0-.42,0-.64s0-.43,0-.65c0-.62,0-1.26,0-1.91s0-1.3.06-2,.06-1.35.11-2,.11-1.39.17-2.1l-.06,0H250m2-13c-.23,1.11-.44,2.22-.64,3.31s-.38,2.17-.55,3.24-.31,2.12-.44,3.16-.25,2.06-.34,3.06h.13l.06,0h.07c.1-1,.21-2,.35-3.1s.29-2.11.45-3.18.36-2.14.55-3.23.42-2.17.65-3.26h-.15l-.07,0H252m3.11-12.21q-.45,1.5-.87,3c-.28,1-.54,2-.8,3s-.5,2-.73,3-.45,2-.65,3h.28c.21-1,.44-2,.67-3s.48-2,.74-3,.52-2,.79-3,.56-2,.85-2.93h-.14l-.07,0h-.07m3.71-10.6c-.29.71-.58,1.44-.86,2.19s-.57,1.52-.85,2.31-.56,1.59-.83,2.41-.54,1.66-.81,2.52a2,2,0,0,0-.07.23l-.07.23-.07.23-.07.23h.28c.28-.91.56-1.82.85-2.72s.59-1.77.89-2.64.62-1.71.93-2.54.63-1.65.95-2.44h-.07l-.07,0h-.13m8.88-14.36h0l0,0,0,0,0,0a11.74,11.74,0,0,0-2.1,2,26,26,0,0,0-2.18,3.08c-.74,1.19-1.48,2.55-2.22,4s-1.47,3.14-2.2,4.91l.07,0h.21c.68-1.68,1.39-3.26,2.1-4.72s1.43-2.8,2.16-4a27.19,27.19,0,0,1,2.16-3.1,11.69,11.69,0,0,1,2.13-2.07l0,0v0l0,0,0,0,.1-.09h0l0,0-.05-.07" style="fill:#09bffc"/><path d="M265.74,124.52h-.32a14.53,14.53,0,0,1-1,1.29,10.14,10.14,0,0,1-1,1,5.25,5.25,0,0,1-1,.65,3.32,3.32,0,0,1-.93.32l-.11,0h-.33l-.24,0,0,.26h.57l.1,0,.25,0,.24-.07.24-.08.25-.11a5.39,5.39,0,0,0,.8-.49,7.22,7.22,0,0,0,.81-.7,10.53,10.53,0,0,0,.83-.9c.28-.34.56-.71.84-1.12m3.67-7.17h-.28l-.44,1.08c-.15.35-.31.69-.46,1s-.31.67-.47,1-.31.64-.47,1-.28.53-.43.79l-.42.74q-.21.36-.42.69l-.42.64h.32c.13-.2.26-.4.39-.62s.27-.43.4-.66.27-.46.4-.7.27-.49.4-.75.33-.65.49-1,.32-.67.48-1,.31-.71.47-1.07.31-.73.46-1.11m3.36-10.73h-.26c-.23.94-.47,1.88-.73,2.79s-.51,1.82-.79,2.69-.55,1.74-.85,2.57-.59,1.64-.9,2.41h.27c.31-.79.61-1.59.91-2.43s.57-1.68.84-2.56.54-1.78.79-2.69.49-1.85.72-2.79m2.33-13.31h-.26c-.12,1.11-.26,2.21-.42,3.31s-.33,2.21-.52,3.3-.39,2.17-.61,3.24-.46,2.13-.71,3.18h.26c.25-1,.49-2.1.71-3.17s.42-2.15.61-3.24.37-2.19.52-3.3.3-2.21.42-3.31m.52-12.77h-.26c0,.66,0,1.32,0,2s0,1.34,0,2,0,1.36-.05,2-.07,1.39-.11,2.1c0,.36-.05.72-.07,1.09l-.09,1.09c0,.36-.06.73-.1,1.09s-.07.73-.11,1.1h.26c0-.36.08-.73.11-1.09s.07-.73.1-1.09l.09-1.09c0-.36.05-.72.07-1.08,0-.71.08-1.41.11-2.1s0-1.39,0-2.07,0-1.35,0-2,0-1.34,0-2m-1.2-10.88h-.27c.17.82.32,1.66.45,2.51s.25,1.72.35,2.6.18,1.79.25,2.71.12,1.84.15,2.79h.26q0-1.41-.15-2.79c-.07-.92-.15-1.82-.25-2.7s-.22-1.76-.35-2.61-.28-1.69-.44-2.51m-6.61-15.32-.1.09,0,0,0,0v0l0,0a25.35,25.35,0,0,1,2.05,3.08,29.55,29.55,0,0,1,1.74,3.52A39.85,39.85,0,0,1,273,65.07c.42,1.38.79,2.83,1.1,4.34h.26c-.31-1.5-.67-2.94-1.09-4.31a39.62,39.62,0,0,0-1.4-3.94,31.94,31.94,0,0,0-1.72-3.52,26,26,0,0,0-2-3.08l-.08,0-.09,0-.09,0-.09,0,0-.12" style="fill:#09bffc"/><path d="M288.91,64.28l0,.06,0,0,0,0,0,0a5.12,5.12,0,0,1-.6.83,6.48,6.48,0,0,1-.8.76,7.6,7.6,0,0,1-1,.68,13.42,13.42,0,0,1-1.2.62l0,.05,0,.06,0,.05,0,.06a10.86,10.86,0,0,0,1.13-.58,8.29,8.29,0,0,0,1-.67,7,7,0,0,0,.85-.77,5.07,5.07,0,0,0,.65-.89l0-.06,0-.06,0-.06,0-.07h0l-.11-.06-.12-.07m-44.38-3.07v.06h0s0,.08,0,.11a.49.49,0,0,0,0,.11.49.49,0,0,0,0,.11.36.36,0,0,0,0,.11,1.27,1.27,0,0,0,0,.34,2,2,0,0,0,0,.34,1.62,1.62,0,0,0,.1.34,3.4,3.4,0,0,0,.16.34,5.34,5.34,0,0,0,1.77,1.62,18.17,18.17,0,0,0,3.17,1.5,41,41,0,0,0,4.26,1.32c1.57.4,3.27.76,5.06,1.07H259l.07,0h.07c1.05.17,2.13.33,3.23.47s2.21.25,3.33.35,2.24.16,3.37.2,2.24.07,3.34.06h1.32l.43,0h.51c.72,0,1.53-.08,2.39-.16s1.77-.19,2.69-.34a28.15,28.15,0,0,0,2.76-.58,18.42,18.42,0,0,0,2.6-.86l0-.06,0-.06,0,0,0-.06a16.33,16.33,0,0,1-2.05.72c-.75.21-1.56.4-2.42.56s-1.78.29-2.75.4-2,.18-3.08.23h-.55l-.43,0h-1.29c-1.1,0-2.21,0-3.32,0s-2.23-.11-3.34-.2-2.21-.21-3.3-.34-2.15-.29-3.19-.46H259l-.07,0c-1.77-.3-3.46-.65-5-1A40.5,40.5,0,0,1,249.7,66a18.19,18.19,0,0,1-3.14-1.48,5,5,0,0,1-1.74-1.59,1.75,1.75,0,0,1-.26-.75,1.53,1.53,0,0,1,0-.37,1.92,1.92,0,0,1,.11-.37l0,0v-.05l0,0-.19-.11,0,0" style="fill:#09bffc"/><path d="M294.86,74.26a2.42,2.42,0,0,1-.21.92,3.25,3.25,0,0,1-.56.86,5,5,0,0,1-.89.8,9.29,9.29,0,0,1-1.23.72l-.31.16-.34.14L291,78l-.37.14,0,.06,0,.06,0,.06,0,.07.37-.15.36-.14.34-.15.33-.16a9.5,9.5,0,0,0,1.2-.7,5.87,5.87,0,0,0,.9-.78,4,4,0,0,0,.61-.85,3,3,0,0,0,.3-.91.15.15,0,0,1,0-.07.22.22,0,0,1,0-.08v-.07s0,0,0-.08h-.27m-59.07-3.91h0s0,.08,0,.12,0,.08,0,.12v.11a.49.49,0,0,0,0,.12,2.5,2.5,0,0,0,.15.75,3.2,3.2,0,0,0,.37.74,5.23,5.23,0,0,0,.58.72,8.38,8.38,0,0,0,.81.71,14.2,14.2,0,0,0,2.82,1.62,32.88,32.88,0,0,0,3.94,1.48c1.49.46,3.14.89,4.93,1.28s3.73.75,5.77,1h.07l.07,0h.14l2,.28,2.09.25,2.16.22,2.21.19c.86.07,1.71.13,2.55.17l2.5.13,2.44.07c.8,0,1.59,0,2.37,0h1.84c1.54,0,3-.11,4.43-.21s2.75-.24,4-.41,2.42-.38,3.49-.62a26.41,26.41,0,0,0,2.9-.81l0-.07,0-.06,0-.06,0-.06a24.59,24.59,0,0,1-2.88.8c-1.07.24-2.23.44-3.47.61s-2.58.31-4,.42-2.88.17-4.42.2H273.8l-2.37,0c-.8,0-1.61,0-2.44-.07l-2.5-.12c-.84,0-1.69-.1-2.55-.17l-2.2-.19-2.14-.22-2.08-.25-2-.28h-.28c-2-.31-4-.66-5.75-1s-3.43-.81-4.91-1.27a32.82,32.82,0,0,1-3.93-1.46,14.29,14.29,0,0,1-2.8-1.61,6.34,6.34,0,0,1-.84-.75,4.4,4.4,0,0,1-.59-.77,2.8,2.8,0,0,1-.32-.77,2.64,2.64,0,0,1-.06-.79v-.08l-.23,0h0" style="fill:#09bffc"/><path d="M297.6,87a3.81,3.81,0,0,1-.59,1.08,5.85,5.85,0,0,1-1,1,9.32,9.32,0,0,1-1.29.86c-.49.26-1,.51-1.61.75V91a14,14,0,0,0,1.51-.69,8.87,8.87,0,0,0,1.29-.8,6.15,6.15,0,0,0,1-.94,4.63,4.63,0,0,0,.71-1.07l0-.09a.36.36,0,0,1,0-.09l0-.09a.36.36,0,0,0,0-.09l-.16-.06-.09,0m-67.24-4.67h0l-.22,0v.12s0,.09,0,.13,0,.08,0,.13l0,.12a4.68,4.68,0,0,0,1.93,2.39,19.78,19.78,0,0,0,4.36,2.27,57.52,57.52,0,0,0,6.63,2.07c2.57.64,5.48,1.25,8.71,1.78h.3l.07,0h.15c1.84.3,3.73.57,5.62.8s3.82.42,5.72.58,3.81.27,5.67.36,3.7.12,5.47.12h1.75l1.42,0,1.4,0,1.36-.07c1-.06,2.06-.14,3.12-.25s2.14-.24,3.19-.41,2.08-.36,3.07-.6a24.81,24.81,0,0,0,2.79-.84v-.3a24.94,24.94,0,0,1-3.51,1c-1.29.28-2.71.52-4.22.71s-3.11.33-4.8.43-3.44.14-5.25.15h-.41c-1.77,0-3.59,0-5.44-.13s-3.72-.2-5.61-.36-3.78-.36-5.67-.59-3.76-.5-5.61-.8H252l-.06,0h-.13c-3.31-.55-6.31-1.17-8.94-1.85a51.65,51.65,0,0,1-6.73-2.16,17.25,17.25,0,0,1-4.28-2.34,3.46,3.46,0,0,1-1.53-2.42" style="fill:#09bffc"/><path d="M295.67,100.73a7.08,7.08,0,0,1-.76.68c-.28.22-.57.44-.88.64s-.64.41-1,.6-.71.38-1.09.55l0,.09,0,.09,0,.09,0,.09c.37-.17.73-.34,1.07-.53s.68-.37,1-.57a10.24,10.24,0,0,0,.9-.63,9,9,0,0,0,.81-.67l.06-.06.06-.06.06-.05.06-.06-.12-.13-.07-.07m-67-5.39-.21.06h0v.08l.06.16.06.15s0,.1.08.16a1.19,1.19,0,0,0,.09.15,5.83,5.83,0,0,0,1.53,1.61A16.52,16.52,0,0,0,233,99.33a35.29,35.29,0,0,0,3.69,1.57q2.1.78,4.7,1.51l2,.55,2.13.52,2.23.49,2.31.46h.2l.06,0c1.7.31,3.45.6,5.23.86s3.6.48,5.43.66,3.67.34,5.5.44,3.66.16,5.45.17h.86q2.75,0,5.34-.18c1.74-.11,3.41-.29,5-.52a43,43,0,0,0,4.52-.9,27.4,27.4,0,0,0,3.9-1.32l0-.09,0-.09,0-.09,0-.09a24.88,24.88,0,0,1-3.64,1.28,40.65,40.65,0,0,1-4.39.93q-2.37.38-5.07.57c-1.79.14-3.69.21-5.69.21h-1.22c-1.72,0-3.48-.07-5.26-.17s-3.58-.24-5.38-.42-3.6-.4-5.38-.65-3.54-.55-5.27-.87h-.07l-.06,0h-.13l-2.26-.45-2.2-.49-2.14-.52c-.7-.18-1.39-.37-2.06-.56-1.84-.52-3.5-1.05-5-1.61a32.27,32.27,0,0,1-3.82-1.68,14.1,14.1,0,0,1-2.6-1.71,4.26,4.26,0,0,1-1.27-1.68v-.13" style="fill:#09bffc"/><path d="M289.43,112.75c-.21.15-.43.29-.65.43l-.68.39c-.23.13-.47.25-.71.37l-.73.34-.08.11-.08.11-.08.11-.08.1.72-.31.7-.34.67-.37.65-.38.12-.08.13-.08.12-.08.13-.09-.11-.17,0-.06m-57.64-4.18h0l-.17.19.1.09a.94.94,0,0,0,.1.1l.11.09.11.09a14.89,14.89,0,0,0,2.75,1.62,41.8,41.8,0,0,0,4.08,1.62c1.55.53,3.28,1,5.12,1.53s3.81.95,5.85,1.36h.07l.06,0h.14c.56.12,1.14.23,1.72.33l1.74.31,1.77.28,1.78.25c.67.09,1.44.19,2.29.28s1.79.19,2.79.27,2.06.16,3.17.21,2.26.1,3.44.11h.6c1.38,0,2.79,0,4.21-.1s2.86-.21,4.26-.4a38.65,38.65,0,0,0,4.13-.75,28.19,28.19,0,0,0,3.84-1.19l.08-.1.08-.11.08-.1.08-.11a26.7,26.7,0,0,1-3.85,1.26,40.1,40.1,0,0,1-4.18.8c-1.43.2-2.88.33-4.33.42s-2.89.12-4.3.12h-.68c-1.18,0-2.34,0-3.44-.1s-2.17-.13-3.17-.21l-2.78-.27c-.85-.09-1.62-.19-2.3-.28l-1.83-.26-1.79-.28-1.74-.31-1.69-.32H250l-.06,0h-.07c-2.3-.46-4.46-1-6.43-1.52s-3.74-1.1-5.3-1.67a36.05,36.05,0,0,1-4-1.68,10.18,10.18,0,0,1-2.35-1.56" style="fill:#09bffc"/><path d="M280.05,121.69l-.39.17-.39.17-.4.15-.4.15-.2.14-.2.14-.2.14-.2.14.35-.12.34-.12.34-.12.34-.13.28-.11.28-.11.28-.12.27-.12-.08-.21,0,0M238,117.9h0l-.19.15h0l.07.09.07.08.09.09.1.09.2.15c.08,0,.15.11.24.16l.27.17.3.17a22.15,22.15,0,0,0,2.11,1c.84.33,1.8.68,2.86,1s2.23.68,3.47,1,2.55.64,3.9.92l.09,0h.08l.08,0,.08,0,.56.11.56.11.56.1.57.1c.7.12,1.47.24,2.3.36s1.71.23,2.64.33,1.91.18,2.92.24,2.06.11,3.12.13h.75c.91,0,1.83,0,2.76-.07s1.86-.12,2.79-.23,1.85-.25,2.77-.42,1.82-.39,2.7-.64l.2-.12.19-.13.19-.13.2-.13a27.4,27.4,0,0,1-2.83.75c-1,.21-1.94.37-2.92.5s-2,.21-3,.27-2,.09-2.92.09H265c-1.06,0-2.1,0-3.11-.12s-2-.15-2.92-.25-1.81-.21-2.64-.32-1.59-.25-2.29-.37l-.62-.11-.6-.11-.6-.11-.59-.12-.08,0h-.08l-.08,0-.08,0c-1.71-.35-3.3-.74-4.75-1.14s-2.74-.81-3.88-1.22a29.2,29.2,0,0,1-2.84-1.16,8,8,0,0,1-1.64-1l-.08-.07-.06-.06,0-.07-.05,0h0" style="fill:#09bffc"/><path d="M267.84,54.21l0,.1v0h0l0,.12.09,0,.09,0,.09,0,.08,0a22,22,0,0,1,4.37,1.6,27.53,27.53,0,0,1,4.21,2.58,33,33,0,0,1,4,3.5,38.07,38.07,0,0,1,3.63,4.34l.16.22.16.23.16.23.16.23,0,.06,0,0,0,.06,0,.06c.54.8,1.06,1.63,1.55,2.47s1,1.71,1.4,2.59.85,1.78,1.24,2.69.74,1.84,1.07,2.78l0,.06,0,.06,0,.06,0,.07c.29.83.56,1.68.8,2.53s.45,1.71.65,2.57.36,1.74.5,2.6.26,1.75.35,2.62c0,.16,0,.33.05.49s0,.32,0,.48,0,.33,0,.49l0,.48v.3c.06,1.08.07,2.15,0,3.21s-.1,2.1-.2,3.13-.26,2-.45,3-.41,2-.68,2.92l0,.09,0,.09,0,.09,0,.09c-.28,1-.61,2-1,2.89a29.81,29.81,0,0,1-1.22,2.77c-.45.9-.93,1.78-1.46,2.64s-1.09,1.69-1.7,2.49l-.08.11-.08.1-.08.11-.08.1c-.57.74-1.16,1.45-1.8,2.14s-1.29,1.36-2,2-1.42,1.26-2.18,1.86-1.54,1.18-2.35,1.73l-.2.13-.19.13L277,123l-.2.12q-.54.36-1.11.69l-1.14.66-1.17.63c-.4.21-.81.41-1.21.6v0l.1.22.59-.29.59-.3.57-.3.57-.31.8-.45.79-.47.77-.49.75-.49.2-.14.2-.14.2-.14.2-.14q1.15-.83,2.22-1.71c.72-.59,1.4-1.21,2.06-1.85s1.29-1.29,1.88-2,1.17-1.37,1.71-2.09l.08-.1.08-.11.08-.11.08-.11c.59-.8,1.13-1.63,1.64-2.48s1-1.73,1.42-2.62.83-1.81,1.18-2.75.67-1.89,1-2.87l0-.09,0-.09,0-.09,0-.09c.25-1,.47-1.93.66-2.92s.32-2,.42-3,.17-2.06.19-3.11,0-2.12-.05-3.2v-.29l0-.47c0-.16,0-.31,0-.47s0-.31,0-.47,0-.31,0-.47c-.1-.88-.21-1.75-.36-2.63s-.31-1.75-.5-2.62-.41-1.73-.65-2.58-.51-1.71-.8-2.55l0-.07,0-.06,0-.06,0-.06c-.33-.94-.68-1.86-1.07-2.78s-.79-1.81-1.23-2.69-.91-1.75-1.4-2.6-1-1.68-1.55-2.48l0-.06,0-.05,0-.06,0-.05a2.2,2.2,0,0,0-.17-.25l-.17-.24a2.2,2.2,0,0,0-.17-.25l-.17-.24a39.87,39.87,0,0,0-3.61-4.32,32.6,32.6,0,0,0-4-3.49,27.12,27.12,0,0,0-4.2-2.6,22,22,0,0,0-4.34-1.64l-.14,0-.15,0-.14,0-.15,0" style="fill:#09bffc"/></g></g><ellipse cx="289.98" cy="100.59" rx="3.18" ry="3.19" style="fill:#13b0e5"/><ellipse cx="289.98" cy="100.59" rx="6.29" ry="6.31" style="fill:none;stroke:#07d6a6;stroke-miterlimit:10;stroke-width:1.82469372634804px"/><path d="M265.82,65.47a5.58,5.58,0,0,1,11.14,0,5.78,5.78,0,0,1-2,4l-3.56,3.56L267.24,69A5.16,5.16,0,0,1,265.82,65.47Z" style="fill:#ff777f;fill-rule:evenodd"/><circle cx="271.39" cy="65.02" r="2.45" style="fill:#fff"/><path d="M240.25,106.69a5.58,5.58,0,0,1,11.14,0,5.78,5.78,0,0,1-2,4l-3.56,3.56-4.18-4.08A5.16,5.16,0,0,1,240.25,106.69Z" style="fill:#ff777f;fill-rule:evenodd"/><circle cx="245.82" cy="106.24" r="2.45" style="fill:#fff"/><path d="M271.42,73.08s.08.3.2.83" style="fill:none;stroke:#ff777f;stroke-miterlimit:10;stroke-width:0.286734406183502px"/><path d="M271.91,75.29c1.43,7.67,3.92,33.05-24.51,38.73" style="fill:none;stroke:#ff777f;stroke-miterlimit:10;stroke-width:0.286734406183502px;stroke-dasharray:1.6854642629623413,1.4045536518096924"/><path d="M246.7,114.15c-.28.06-.57.11-.85.15" style="fill:none;stroke:#ff777f;stroke-miterlimit:10;stroke-width:0.286734406183502px"/><path d="M271.42,73.08S296.27,88,290,94.28" style="fill:none;stroke:#ff777f;stroke-miterlimit:10;stroke-width:0.286035838235481px;stroke-dasharray:1.7162150144577026,1.430179238319397"/><path d="M71.55,385.33l93.28,1.73a55.12,55.12,0,0,1,9,.78,43.16,43.16,0,0,1,7.76,2,22.52,22.52,0,0,1,5.73,3,7.59,7.59,0,0,1,2.86,3.71,4.16,4.16,0,0,1-.76,3.74,10.72,10.72,0,0,1-4.14,3.07,28.58,28.58,0,0,1-6.89,2.06,49.7,49.7,0,0,1-9,.72L65.89,404.34A48.6,48.6,0,0,1,57,403.5a27.27,27.27,0,0,1-6.74-2.15,10.05,10.05,0,0,1-3.94-3.12,4.07,4.07,0,0,1-.54-3.74,8,8,0,0,1,3.06-3.65,23.19,23.19,0,0,1,5.86-2.92A44,44,0,0,1,62.55,386a55.73,55.73,0,0,1,9-.66" style="opacity:0.55;fill:url(#h)"/><path d="M92.57,392.59s-1.37,7.75,0,9.57c0,0,8.21,5,14.6-4.78,0,0,14.13,2.67,10.49-12.92,0,0-5-3.11-8.67,0S94.39,388,94.39,388Z" style="fill:url(#i)"/><path d="M88.4,142.17s.73-2.24-5.65-13.64-1-14.38,11.26-18,18.84,7,16.1,13.65c0,0,4.71,19.41-3.57,23.52L91,145.86Z" style="fill:#e0c8c5"/><path d="M117,243.93s4.57,49.71-5,83.46a320,320,0,0,1-3.85,58l-14.4,5.38s1.37-47.43,2.74-60.2c0,0-6.39-42-6.39-55.19,0,0-7.75,41.5-12.31,55.19,0,0,2.74-16-5.47,57.47H61.77s-7.76-31,.45-64.77c0,0-2.73-69.33.91-78.45Z" style="fill:url(#j)"/><path d="M118.32,261.26l.46-71.61s12.77,9.12,15.05,23.72l16.88-.91s0-21.44-17.34-43.33c0,0-5.92-9.58-27.36-18.25,0,0,1.37-8.67-14.6-9.58a12,12,0,0,0-9.12,6.84l-16.88,9.58s-11.4,3.2-13.68,10.95c0,0-20.07,25.09-20.52,31s16.87,8.21,16.87,8.21l2.74-7.09,6.38-4.31s6.39,47.89,2.74,59.3c0,0,8.21,19.15,25.54,18.7S105.55,262.63,118.32,261.26Z" style="fill:#0abffc"/><path d="M148.84,212.56s-17.25,34.9-30.47,41.74c0,0-9.72-10.33-6.93-18.49,1.89-5.52,7,5.41,7,5.41s9-3.22,15.38-27.85Z" style="fill:#e0c8c5"/><path d="M32.47,202.52s-4,4.21,1.47,10A231.87,231.87,0,0,0,54,243s8.67,5,10.95,0,4.14-8.25-4.09-7.32S46.26,207.9,46.26,207.9Z" style="fill:#e0c8c5"/><path d="M71,399.55s-8.21,3.65-11.86,0a34.55,34.55,0,0,1,0-10.95s15.05-7.3,16,0Z" style="fill:url(#k)"/><path d="M58.57,181.44s0,3.19-1.37,15.05" style="fill:#ccc"/><path d="M95.84,108.46c21.21-.28,14.27,15.71,14.27,15.71-1,2.52-2,5-2.91,7.19-.56-1.87-1.94-3.12-3.22-2.84s-2.14,2.26-1.68,4.37c.41,1.85,1.6,3.2,2.82,3.31-2,4.58-3.47,7.6-3.47,7.6S91,145.86,88.4,142.17s-7.54-18-7.54-18S77.81,108.71,95.84,108.46Z" style="fill:url(#l)"/><path d="M118.78,189.65s10,3.26,15.05,23.72C133.83,213.37,136.34,190.56,118.78,189.65Z" style="fill:#1a1a1a;opacity:0.1"/></g></svg>