<svg xmlns="http://www.w3.org/2000/svg" xmlns:xlink="http://www.w3.org/1999/xlink" viewBox="0 0 543.31 370.5"><defs><linearGradient id="a" x1="229.49" y1="361.56" x2="498.19" y2="361.56" gradientUnits="userSpaceOnUse"><stop offset="0" stop-color="#f5f5f5"/><stop offset="1" stop-color="#fcfcfc"/></linearGradient><linearGradient id="b" x1="286.13" y1="356.54" x2="306.89" y2="356.54" gradientUnits="userSpaceOnUse"><stop offset="0" stop-color="#343434"/><stop offset="1" stop-color="#474747"/></linearGradient><linearGradient id="c" x1="233.88" y1="356.25" x2="256.53" y2="356.25" xlink:href="#b"/></defs><title>ManagingAsset 41</title><g style="isolation:isolate"><polygon points="196.49 74.87 199.14 124.79 280.39 124.79 280.39 75.4 196.49 74.87" style="fill:#f5f5f5"/><polygon points="355.79 1.59 356.32 30.8 406.24 28.67 406.24 0 355.79 1.59" style="fill:#f5f5f5"/><path d="M388.71,58.41c1.6,0,60-2.12,60-2.12l-3.19,41.42s-59.47,7.43-58.41.53S388.71,58.41,388.71,58.41Z" style="fill:#f5f5f5"/><path d="M470,177.89l-2.66,64.25s94.52-.53,53.1-11.68l4.25-57.35Z" style="fill:#f5f5f5"/><path d="M525.18,162.49l-4.78,68s8.5.53,9.56,4.78c0,0,9-63.19,9-64.79a8.27,8.27,0,0,0-5.84-7.43Z" style="fill:#dedee2"/><path d="M464.12,107.26c1.59,0,54.16.53,54.16.53L513.5,145,462,143.37Z" style="fill:#f5f5f5"/><polygon points="372.78 116.82 439.69 117.88 437.57 156.12 371.72 155.06 372.78 116.82" style="fill:#f5f5f5"/><polygon points="332.96 198.6 371.19 199.13 371.19 216.65 332.96 215.59 332.96 198.6" style="fill:#f5f5f5"/><polygon points="269.24 159.3 269.77 176.29 322.34 176.83 322.34 158.77 269.24 159.3" style="fill:#f5f5f5"/><polygon points="189.05 142.04 257.02 142.04 257.02 188.24 187.99 186.65 189.05 142.04" style="fill:#f5f5f5"/><polygon points="403.05 167.8 460.4 168.33 457.21 201.78 401.46 199.66 403.05 167.8" style="fill:#f5f5f5"/><polygon points="302.16 88.94 360.04 89.47 361.1 125.58 304.28 125.05 302.16 88.94" style="fill:#f5f5f5"/><polygon points="73.29 116.29 153.48 118.42 158.25 173.11 79.67 173.11 73.29 116.29" style="fill:#f5f5f5"/><polygon points="330.83 133.84 361.1 134.37 361.1 150.83 330.83 150.83 330.83 133.84" style="fill:#f5f5f5"/><path d="M479.52,24.76s66.37-1.06,63.72,5.31c0,0-28.68.53-28.15,2.65S505,83.7,505,83.7l-31.86-4.78Z" style="fill:#f5f5f5"/><path d="M501.29,97.51l13.8-64.79s15.93,1.07,28.15-2.65L530,88s-.53,4.25-5.84,5.84C524.12,93.79,508.19,99.63,501.29,97.51Z" style="fill:#dedee2"/><polygon points="90.29 57.35 98.78 104.61 174.72 106.73 172.06 58.41 90.29 57.35" style="fill:#f5f5f5"/><path d="M53.12,32.39l11.68,60L18.07,88.68S8,85.49,20.19,83.37l12.22-2.13L21.26,23.9Z" style="fill:#f5f5f5"/><path d="M17,3.19l15.4,78.05S17,82.84,14.35,85L0,18.59S-.52,9,4.79,6.9Z" style="fill:#dedee2"/><path d="M42.5,233.11s19.64,15.4,106.73,11.68l-14.87-80.71s-102.48,0-105.14-5.84Z" style="fill:#dedee2"/><path d="M29.22,158.24a17.59,17.59,0,0,1,11.68-2.12v4.78Z" style="fill:#f5f5f5"/><g style="opacity:0.15;mix-blend-mode:exclusion"><path d="M125.87,23.76l65,4.91s5.29,40.05,2.27,40.43-61.59-1.51-61.59-1.51Z" style="fill:#dedee2"/></g><path d="M121.62,21.05l65,4.92S191.9,66,188.87,66.4s-61.59-1.52-61.59-1.52Z" style="fill:#f5f5f5"/><g style="opacity:0.15;mix-blend-mode:exclusion"><rect x="258.35" y="48.28" width="69.03" height="39.89" style="fill:#dedee2"/></g><rect x="253.31" y="45.07" width="69.03" height="39.89" style="fill:#f5f5f5"/><path d="M475.91,352.62l-224.55,1.49a46.6,46.6,0,0,0-7.72.67,37,37,0,0,0-6.65,1.74,19.31,19.31,0,0,0-4.9,2.58,6.52,6.52,0,0,0-2.46,3.18,3.56,3.56,0,0,0,.65,3.2,9.13,9.13,0,0,0,3.55,2.63,24.21,24.21,0,0,0,5.91,1.77,41.59,41.59,0,0,0,7.69.62l233.34-1.58a41.67,41.67,0,0,0,7.6-.72,23.27,23.27,0,0,0,5.78-1.84,8.48,8.48,0,0,0,3.37-2.68,3.46,3.46,0,0,0,.46-3.2,6.8,6.8,0,0,0-2.62-3.13,20.07,20.07,0,0,0-5-2.51,38.08,38.08,0,0,0-6.71-1.65,49.27,49.27,0,0,0-7.72-.57" style="opacity:0.55;fill:url(#a)"/><rect x="265.15" y="144.19" width="14.6" height="16.94" style="fill:#b1766d"/><path d="M269.92,126.33s-10.79,13.6-5.83,19.43,16,8.21,18.57.43c0,0,3.67.44,5-5.39,0,0,11.44-9.72,0-21s-25.7.87-22.46,5.62S269.92,126.33,269.92,126.33Z" style="fill:#b1766d"/><path d="M268.8,128s-10.43-3.39,2.09-12,33.1,14.07,17.2,23.72c0,0-2.87-3.13-4.69.78s-3.91,1.82-1.83-3.13-.52-7,.52-8.08S277.4,123.34,268.8,128Z" style="fill:#1a1a1a"/><path d="M264.12,145.57s2.09-4.9,10.12,1.93c5.07,4.31,6.05.21,6.05.21s.86,6-16.41,12.31v-4.53S267.72,149.77,264.12,145.57Z" style="fill:#a86b65"/><path d="M292.26,237.36s3.12,46.92,2.73,64.51c0,0,2.35,14.46,2.35,46.91l-9.77.78s-7-34.4-6.65-43l-10.56-44.18s-7.82,39.88-10.94,43.4c0,0-1.18,41.44-3.91,44.18L245,347.61s-3.91-23.85,1.17-44.18c0,0-2.34-52.78,0-61.77s0-4.3,0-4.3Z" style="fill:#84dffd"/><path d="M246.12,240.1s21.12,14.86,46.53.39c0,0,2.34-51.61,7.82-54.34s23.06.39,32.84-2.35c8.87-2.48,24.72-12.05,32.05-16.65a4,4,0,0,0,.89-6h0a4,4,0,0,0-4.81-1c-5.95,3-20.52,9.77-33.22,11.88,0,0-10.55,1.57-29.71-7s-23.06-10.56-38.31-7-27,12.9-27,12.9-11.33,5.87-24.63,3.91c-10.22-1.5-20.9-4.39-26.89-7.43a3.73,3.73,0,0,0-5.28,2.43h0a3.73,3.73,0,0,0,1.69,4.1c6,3.62,22,12.86,30.48,13.8,10.56,1.17,16.49,3,31.28-3.52C249.64,179.89,246.12,240.1,246.12,240.1Z" style="fill:#ffdb66"/><path d="M280.23,160.4a40.88,40.88,0,0,1-15.82,0,2.56,2.56,0,0,1-2.16-3.08h0a2.7,2.7,0,0,1,3.13-1.82,35.58,35.58,0,0,0,13.87,0,2.7,2.7,0,0,1,3.13,1.82h0A2.56,2.56,0,0,1,280.23,160.4Z" style="fill:#f7cb52"/><path d="M286.65,348.78l-.52,10.69s4.69,1.56,6.26,4.43,13,2.87,14.07.52.78-6-8.08-11.73L297.6,347Z" style="fill:url(#b)"/><path d="M255.64,349.43s1.82,9.13.26,10.43c0,0-8.6,8.08-18,6s.52-9.38.52-9.38,7.29-5.21,7.55-10.16Z" style="fill:url(#c)"/><path d="M170.13,164.7c-1.82-1.75-5.6-5.58-5.21-3.39.29,1.67,4.29,5.86,7.1,8.08a23.8,23.8,0,0,0,4.82,3.56l.51.35-.09-.11.3.17c.24-5.35,3.4-6,3.4-6-4.83-2.59-6.16-5.49-6.08-7.22a1.63,1.63,0,0,0-1.65-1.76c.07-1.29-.92-1.25-.92-1.25C170.25,153.91,169.9,161,170.13,164.7Z" style="fill:#b1766d"/><path d="M373.18,157.61c1.82-1.75,5.6-5.58,5.21-3.38-.29,1.66-4.29,5.85-7.09,8.08a24.67,24.67,0,0,1-4.82,3.55l-.51.35.08-.11-.3.17c-.23-5.35-3.39-6-3.39-6,4.82-2.59,6.16-5.49,6.07-7.22a1.65,1.65,0,0,1,1.65-1.76c-.06-1.29.93-1.25.93-1.25C373.06,146.82,373.41,153.87,373.18,157.61Z" style="fill:#b1766d"/></g></svg>