<svg xmlns="http://www.w3.org/2000/svg" xmlns:xlink="http://www.w3.org/1999/xlink" viewBox="0 0 524.39 340.5"><defs><clipPath id="a"><polygon points="82.33 155.76 162.51 157.88 167.29 212.57 88.7 212.57 82.33 155.76" style="fill:none"/></clipPath><linearGradient id="b" x1="346.01" y1="107.14" x2="453.61" y2="211.07" gradientUnits="userSpaceOnUse"><stop offset="0" stop-color="#f5f5f5"/><stop offset="1" stop-color="#fcfcfc"/></linearGradient><linearGradient id="c" x1="236.01" y1="126.67" x2="315.77" y2="82.1" xlink:href="#b"/><linearGradient id="d" x1="1.23" y1="252.3" x2="0.85" y2="250.18" gradientUnits="userSpaceOnUse"><stop offset="0" stop-color="#ffe3c4"/><stop offset="1" stop-color="#fff1e1"/></linearGradient><linearGradient id="e" x1="241.39" y1="325.15" x2="386.17" y2="325.15" xlink:href="#b"/><linearGradient id="f" x1="252.62" y1="316.63" x2="268.5" y2="316.63" gradientUnits="userSpaceOnUse"><stop offset="0" stop-color="#343434"/><stop offset="1" stop-color="#474747"/></linearGradient><linearGradient id="g" x1="266.78" y1="322.77" x2="280" y2="322.77" xlink:href="#f"/><linearGradient id="h" x1="243.84" y1="209.99" x2="294.53" y2="209.99" xlink:href="#f"/><linearGradient id="i" x1="220.66" y1="146.35" x2="231.78" y2="165.33" gradientUnits="userSpaceOnUse"><stop offset="0" stop-color="#fdfbfb"/><stop offset="1" stop-color="#ebedee"/></linearGradient><linearGradient id="j" x1="220.83" y1="146.26" x2="231.94" y2="165.24" xlink:href="#i"/><linearGradient id="k" x1="220.62" y1="146.37" x2="231.74" y2="165.35" xlink:href="#i"/><linearGradient id="l" x1="181.16" y1="153.1" x2="205.04" y2="153.1" gradientTransform="translate(68.75 -52.09) rotate(-2.67)" xlink:href="#d"/><linearGradient id="m" x1="228.32" y1="141.86" x2="239.44" y2="160.84" xlink:href="#i"/></defs><title>TrackingAsset 42</title><g style="isolation:isolate"><polygon points="82.33 155.76 162.51 157.88 167.29 212.57 88.7 212.57 82.33 155.76" style="fill:#f5f5f5"/><g style="clip-path:url(#a)"><path d="M92.44,193.12c1.14,16.41-.64,20.58,1.39,22.1.66.5,3,.06,6-.83C88.45,230.62,102.68,279,102.68,279a8.6,8.6,0,0,0,2.89,3.29c-.87,3.15-1.66,11.09,3.18,28.57,0,0,3.42,10.13,2.66,16.07a6.85,6.85,0,0,0-.29,2s-6.63,10.73,1,11.48c4.75.48,6.1-.65,6.44-2.91,1.22,1.45,3.37,1.83,6.5.64,8-3,3-17.83,3-17.83L123.92,312c3-26.55-3.63-28.43-3.63-28.43a41.67,41.67,0,0,0,5.53-1.54s-5.69.38,5.31-23.9,3.41-49.31,3.41-49.31l.28-3.41,2.56-.77c1.54-.42,2.47-.75,2.47-.75s3.8-24.27,0-32.93-11.75-5.64-11.75-5.64a17.86,17.86,0,0,0-2.71-2.65v-15a7.65,7.65,0,0,0-.59-1.09c3.28-4.21-7.83-15.15-18.17-11.86a8,8,0,0,0-4.71,4.41c-3.54,3.32-2.22,22.81-1.35,32.27-8,4.83-5.16,5.15-5.16,5.15a3.59,3.59,0,0,1,2.43,1.37,9.32,9.32,0,0,0-2.43-1.37S91.3,176.71,92.44,193.12Zm8.64,11.12a8.71,8.71,0,0,0,1.79.32A2.76,2.76,0,0,1,101.08,204.24Zm16.34,106.61c.74,2.29,1.19,3.75,1.19,3.75-.66,5.78,0,8.69.71,10.11-.25.63-.49,1.25-.7,1.86a17.85,17.85,0,0,0-2.37-3.62A70,70,0,0,0,117.42,310.85ZM99.69,199.29l2-9.27h0a25.82,25.82,0,0,1,1.8,9.81A6.72,6.72,0,0,0,100,202a2.67,2.67,0,0,0-.23.44A8.34,8.34,0,0,1,99.69,199.29Z" style="fill:#1a1a1a;opacity:0.02"/></g><polygon points="99.33 96.82 107.82 144.07 183.76 146.2 181.1 97.88 99.33 96.82" style="fill:#f5f5f5"/><path d="M62.15,71.86l11.69,60-46.73-3.71S17,125,29.23,122.83l12.22-2.12L30.29,63.36Z" style="fill:#f5f5f5"/><path d="M26.05,42.65l15.4,78.06s-15.4,1.59-18.06,3.72L9.05,58.05s-.53-9.56,4.78-11.68Z" style="fill:#dedee2"/><path d="M51.53,272.58S71.18,288,158.27,284.26L143.4,203.55s-102.49,0-105.14-5.84Z" style="fill:#dedee2"/><path d="M38.26,197.71a17.63,17.63,0,0,1,11.68-2.13v4.78Z" style="fill:#f5f5f5"/><g style="opacity:0.15;mix-blend-mode:exclusion"><path d="M134.91,63.23l65,4.91s5.29,40.05,2.26,40.43-61.58-1.51-61.58-1.51Z" style="fill:#dedee2"/></g><path d="M130.65,60.52l65,4.91s5.28,40.06,2.26,40.43-61.59-1.51-61.59-1.51Z" style="fill:#f5f5f5"/><polyline points="524.39 149.2 372.02 157.72 371.67 204.78 371.66 206.42 371.41 239.32 371.39 240.96 371.23 262.3 523.53 261.64 524.39 149.2" style="fill:#f4f4f4;opacity:0.5;mix-blend-mode:multiply"/><path d="M338.76,123.43l-1.17.07.17,65.59a16.47,16.47,0,0,0,.46,4.07,8.5,8.5,0,0,0,1.34,3,5.71,5.71,0,0,0,2.2,1.8,7.28,7.28,0,0,0,3.05.63l17.91-.45v-1.64l-17.9.46a6.54,6.54,0,0,1-2.61-.48,4.51,4.51,0,0,1-1.83-1.46,6.53,6.53,0,0,1-1.09-2.44,14.89,14.89,0,0,1-.36-3.48l-.17-65.63" style="fill:#0abffc"/><path d="M330.22,124l-1.16.08.24,95.9a29.54,29.54,0,0,0,.16,3.07,21.52,21.52,0,0,0,.47,2.66,14.46,14.46,0,0,0,.77,2.25,9.59,9.59,0,0,0,1.08,1.83,7.34,7.34,0,0,0,2.81,2.26,8,8,0,0,0,1.8.56,11.06,11.06,0,0,0,2,.18h.84l23.54-.15V231l-23.56.16-.2,0h-.59a8.93,8.93,0,0,1-1.83-.15,7.1,7.1,0,0,1-1.6-.47,6.06,6.06,0,0,1-1.34-.81,5.84,5.84,0,0,1-1.1-1.12,7.8,7.8,0,0,1-.92-1.58,11.09,11.09,0,0,1-.66-2,17.14,17.14,0,0,1-.4-2.35,26.13,26.13,0,0,1-.14-2.74l-.24-96" style="fill:#07d7a7"/><polyline points="372.97 238.13 372.94 226.23 410.88 225.87 410.91 238.01 372.97 238.13" style="fill:#fff"/><polyline points="410.91 238.01 410.88 225.87 453.6 225.46 453.63 237.88 410.91 238.01" style="fill:#fff"/><polyline points="468.04 235.75 468.01 225.32 490.87 225.1 490.89 235.65 468.04 235.75" style="fill:#fff"/><polyline points="467.94 198.2 467.92 189.86 490.77 189.22 490.8 197.66 467.94 198.2" style="fill:#fff"/><polyline points="372.88 202.44 372.85 190.54 417.65 189.24 417.68 201.42 372.88 202.44" style="fill:#fff"/><polyline points="417.68 201.42 417.65 189.24 453.51 188.19 453.54 200.61 417.68 201.42" style="fill:#fff"/><polyline points="375.73 174.57 375.7 164.65 437.68 161.97 437.7 172.22 375.73 174.57" style="fill:#fff"/><polyline points="516.02 140.83 363.65 149.34 363.3 196.4 363.29 198.05 363.04 230.95 363.02 232.59 362.86 253.93 515.16 253.27 516.02 140.83" style="fill:url(#b)"/><polyline points="437.68 161.97 375.7 164.65 375.73 174.57 437.7 172.22 437.68 161.97" style="fill:#e8e8e8"/><polyline points="417.65 189.24 372.85 190.54 372.88 202.44 417.68 201.42 417.65 189.24" style="fill:#0abffc"/><polyline points="453.51 188.19 417.65 189.24 417.68 201.42 453.54 200.61 453.51 188.19" style="fill:#e8e8e8"/><polyline points="410.88 225.87 372.94 226.23 372.97 238.13 410.91 238.01 410.88 225.87" style="fill:#07d7a7"/><polyline points="453.6 225.46 410.88 225.87 410.91 238.01 453.63 237.88 453.6 225.46" style="fill:#e8e8e8"/><polyline points="490.77 189.22 467.92 189.86 467.94 198.2 490.8 197.66 490.77 189.22" style="fill:#e9edfb"/><polyline points="490.87 225.1 468.01 225.32 468.04 235.75 490.89 235.65 490.87 225.1" style="fill:#e9edfb"/><path d="M382.52,13.63,310.65,19.8a11.33,11.33,0,0,1-.56,3.52,10.13,10.13,0,0,1-1.53,3,8.12,8.12,0,0,1-2.26,2.09,6.28,6.28,0,0,1-2.77.92V136l31.37-.41H336l6.71-.09,39.86-.52V13.63" style="fill:#f4f4f4;opacity:0.5;mix-blend-mode:multiply"/><polyline points="302.48 114.71 302.48 97.76 363.52 95.78 363.52 113.38 302.48 114.71" style="fill:#fff"/><polyline points="302.48 91.6 302.48 68.48 363.52 65.38 363.52 89.38 302.48 91.6" style="fill:#fff"/><polyline points="302.48 63.86 302.48 45.37 363.52 41.38 363.52 60.58 302.48 63.86" style="fill:#fff"/><polyline points="303.71 34.49 303.71 22.15 355.64 18.01 355.64 30.75 303.71 34.49" style="fill:#fff"/><path d="M374.15,5.26l-71.87,6.22a11.43,11.43,0,0,1-.56,3.55,10.3,10.3,0,0,1-1.53,3,8.36,8.36,0,0,1-2.26,2.11,6.29,6.29,0,0,1-2.77.93V128.68l31.37-.42h1.05l6.71-.09h1.06l38.8-.52V5.26" style="fill:url(#c)"/><polyline points="355.64 18.01 303.71 22.15 303.71 34.49 355.64 30.75 355.64 18.01" style="fill:#e8e8e8"/><path d="M306.16,57.49V51.3l45.56-2.8v6.36l-45.56,2.63m57.36-16.11-61,4V63.86l61-3.28V41.38" style="fill:#f5f5f5"/><path d="M306.16,83.74V77.57l43-1.94V82l-43,1.77m57.36-18.36-61,3.1V91.6l61-2.22v-24" style="fill:#f5f5f5"/><path d="M306.16,110v-6.18l22.46-.64v6.26l-22.46.56m57.36-14.22-61,2v16.95l61-1.33V95.78" style="fill:#f5f5f5"/><polyline points="351.72 48.5 306.16 51.3 306.16 57.49 351.72 54.86 351.72 48.5" style="fill:#e8e8e8"/><polyline points="349.12 75.63 306.16 77.57 306.16 83.74 349.12 81.97 349.12 75.63" style="fill:#e8e8e8"/><polyline points="328.62 103.18 306.16 103.82 306.16 110 328.62 109.44 328.62 103.18" style="fill:#e8e8e8"/><circle cx="298.57" cy="13.63" r="13.63" style="fill:#ffa21d"/><line x1="298.24" y1="7.79" x2="298.24" y2="19.46" style="fill:none;stroke:#fff;stroke-miterlimit:10;stroke-width:1.94733191227021px"/><line x1="304.4" y1="13.63" x2="292.72" y2="13.63" style="fill:none;stroke:#fff;stroke-miterlimit:10;stroke-width:1.94733191227021px"/><path d="M1,252.32a1.08,1.08,0,0,0,0-2.16,1.08,1.08,0,0,0,0,2.16Z" style="fill:url(#d)"/><path d="M360.19,314.72l-93.28,1.73a56.48,56.48,0,0,0-9,.78,43.14,43.14,0,0,0-7.76,2,22.13,22.13,0,0,0-5.72,3,7.59,7.59,0,0,0-2.86,3.71,4.17,4.17,0,0,0,.75,3.74,10.7,10.7,0,0,0,4.14,3.07,28.22,28.22,0,0,0,6.9,2.06,48.81,48.81,0,0,0,9,.72l103.53-1.84a47.82,47.82,0,0,0,8.87-.84,27.27,27.27,0,0,0,6.74-2.15,10,10,0,0,0,3.94-3.12,4.05,4.05,0,0,0,.53-3.73,8,8,0,0,0-3.05-3.66,23.27,23.27,0,0,0-5.87-2.92,44.5,44.5,0,0,0-7.82-1.93,56.88,56.88,0,0,0-9-.66" style="opacity:0.55;fill:url(#e)"/><path d="M282.79,253.92s5.66,7.36-3.18,39.27c0,0-4.42,13.12-3.43,20.8,0,0,2.67,8.17-6.28,6.7s0-11.78,0-11.78-5.88-27.5,5.35-55C275.25,253.92,281.06,246.14,282.79,253.92Z" style="fill:#ffe3c4"/><path d="M254.57,305.47s-6.38,19.15,3.93,23.08,12.4-5.25,7.43-17.36S254.57,305.47,254.57,305.47Z" style="fill:url(#f)"/><path d="M276.55,316.63s8.58,13.88-1.3,14.86-8.39-3.35-8.4-10.62C266.85,320.87,268.57,308.64,276.55,316.63Z" style="fill:url(#g)"/><path d="M264.67,257.87s-8.62,2.43-4.7,36.8l-5.4,10.8s1.06,12.27,10.1,7.36c0,0,3.65-2,2.18-14.73,0,0,11.27-36.43,15.94-41.29C282.79,256.81,273.79,241.7,264.67,257.87Z" style="fill:#ffead3"/><path d="M248.94,161.12s-12.53,32.41,1.7,63.83c9.52,21,9.39,27.75,8.25,29.91a1.22,1.22,0,0,0,.74,1.72c5.92,1.81,22.62,5.81,27.84-4.63-1.9,1.08,15-53.65,2.32-83.72,0,0-2.86-5.32-3.26-5.32C273.39,165.09,261.31,164.89,248.94,161.12Z" style="fill:url(#h)"/><path d="M236,171.25s5.88,5.84,12.64,4,1.15-9.71-10.86-11.27l-4.13.67Z" style="fill:#ffead3"/><path d="M293.23,196.17S287.29,202,289,208.74s9.68,1.3,11.44-10.68l-.6-4.14Z" style="fill:#ffead3"/><path d="M251.48,89.73l1.74,37.33,31.4-1.46s3-42.91-3.31-48.34C281.31,77.26,255.46,78.66,251.48,89.73Z" style="fill:#1e1e1e"/><path d="M248.1,161.63s2.17-23.63-2.61-29.93c0,0-.87-1.52-3.69,2.83s-6.51,10.85-8.47,10.85l9.56,19.33s-6.52,2.82-7.17,5.43-.21.86-.21.86L222,146.9s-1.3-2.6,3.26-10.2c3.46-5.77,11.68-16,15.44-20.66a7.84,7.84,0,0,1,4.62-2.76c3.41-.64,9.34-2.23,13.59-5.89,0,0-.65-5.21,10-6.08s12.81,6.08,13.68,9.12c0,0,12.16,2.17,13,7.16,0,0,3.91,3,5.86,34.52s.65,47.77-1.3,51l-10.64-2,3.26-16.06-3.7-30.18-1.52-12.38s-.86,15.25-1.08,20.47C286.53,163,264,167.06,248.1,161.63Z" style="fill:#ff777f"/><path d="M235.39,171.45l0,.08Z" style="fill:url(#i)"/><path d="M235.51,171h0c-.06.22-.09.36-.12.45C235.44,171.28,235.51,171,235.51,171Z" style="fill:url(#j)"/><path d="M235.37,171.53c0,.05,0,0,0,0Z" style="fill:url(#k)"/><path d="M263.38,197s22.4,25.9,10.5,40.6" style="fill:none;stroke:#333;stroke-miterlimit:10;stroke-width:0.7000000000000001px"/><path d="M258.91,109.48s.44,3.15,5-5.26h13.32l-2.27,10-9.71,16.58A37.76,37.76,0,0,0,258.91,109.48Z" style="fill:#ffe3c4"/><path d="M257,92.74s-.53,9.81,4.11,14.4,3,7.91,14.55-1.38c0,0,6.74-6,4.56-21.17s-12.32-12.28-12.32-12.28S256.9,70.38,257,92.74Z" style="fill:url(#l)"/><path d="M275,71.84s-4,19-18.22,18.2S258.83,67.53,275,71.84Z" style="fill:#1e1e1e"/><path d="M275,71.84s8.14,1.88,7.66,12.64S253.61,82,275,71.84Z" style="fill:#1e1e1e"/><polygon points="228.35 170.85 222.92 146.26 265.93 138.77 271.37 163.36 228.35 170.85" style="fill:#dedee2"/><polygon points="224.53 168.9 219.1 144.32 262.11 136.82 267.55 161.41 224.53 168.9" style="fill:#fff"/><path d="M262.11,136.82c1.1,1.64,3.82,2,3.82,2l5.44,24.59-3.82-2Z" style="fill:#efefef"/><polygon points="271.37 163.36 228.35 170.85 224.53 168.9 267.55 161.41 271.37 163.36" style="fill:#e5e5e5"/><line x1="263.96" y1="140.4" x2="268.17" y2="159.41" style="fill:none;stroke:#e6e6e6;stroke-miterlimit:10;stroke-width:0.16806320231772476px"/><line x1="264.71" y1="140.27" x2="268.91" y2="159.28" style="fill:none;stroke:#e6e6e6;stroke-miterlimit:10;stroke-width:0.16806320231772476px"/><line x1="265.58" y1="140.12" x2="269.78" y2="159.13" style="fill:none;stroke:#e6e6e6;stroke-miterlimit:10;stroke-width:0.16806320231772476px"/><line x1="263.06" y1="162.86" x2="227.75" y2="169.01" style="fill:none;stroke:#f2f2f2;stroke-miterlimit:10;stroke-width:0.1930282954494697px"/><line x1="265.33" y1="163.02" x2="230.02" y2="169.17" style="fill:none;stroke:#f2f2f2;stroke-miterlimit:10;stroke-width:0.1930282954494697px"/><line x1="267.62" y1="163.26" x2="232.31" y2="169.41" style="fill:none;stroke:#f2f2f2;stroke-miterlimit:10;stroke-width:0.1930282954494697px"/><path d="M236,171.25s5.88,5.84,12.64,4,1.15-9.71-10.86-11.27l-4.13.67Z" style="fill:#ffead3"/><path d="M225.3,136.7c-4.56,7.6-3.26,10.2-3.26,10.2L235.51,171l.21-.87c.65-2.6,7.17-5.42,7.17-5.42l-9.56-19.33c1.07,0,2.66-1.95,4.34-4.43l-7.3-11.63C228.36,132,226.53,134.65,225.3,136.7Z" style="fill:url(#m)"/></g></svg>